<?xml version="1.0" encoding="utf-8"?>
<svg width="659" height="440" viewBox="0 0 200 200" fill="none" xmlns="http://www.w3.org/2000/svg">
  <defs/>
  <path d="M 196.746 85.994 C 191.842 82.707 178.959 81.304 169.594 83.817 C 169.091 74.53 164.275 66.704 155.476 59.874 L 152.219 57.699 L 150.048 60.964 C 145.781 67.411 143.981 76.004 144.618 83.817 C 145.121 88.631 146.801 94.039 150.048 97.964 C 137.859 105.004 126.62 103.405 76.853 103.405 L 0.017 103.405 C -0.206 114.593 1.6 136.109 15.345 153.625 C 16.864 155.56 18.527 157.432 20.336 159.234 C 31.512 170.375 48.398 178.544 73.648 178.566 C 112.169 178.601 145.171 157.873 165.248 107.761 C 171.854 107.866 189.294 108.939 197.829 92.523 C 198.037 92.248 200 88.172 200 88.172 L 196.746 85.997 L 196.746 85.994 Z M 50.162 75.764 L 28.555 75.764 L 28.555 97.271 L 50.162 97.271 L 50.162 75.764 Z M 78.072 75.764 L 56.466 75.764 L 56.466 97.271 L 78.072 97.271 L 78.072 75.764 Z M 105.985 75.764 L 84.38 75.764 L 84.38 97.271 L 105.985 97.271 L 105.985 75.764 Z M 133.9 75.764 L 112.293 75.764 L 112.293 97.271 L 133.9 97.271 L 133.9 75.764 Z M 22.247 75.764 L 0.641 75.764 L 0.641 97.271 L 22.247 97.271 L 22.247 75.764 Z M 50.162 48.601 L 28.555 48.601 L 28.555 70.108 L 50.162 70.108 L 50.162 48.601 Z M 78.072 48.601 L 56.466 48.601 L 56.466 70.108 L 78.072 70.108 L 78.072 48.601 Z M 105.985 48.601 L 84.38 48.601 L 84.38 70.108 L 105.985 70.108 L 105.985 48.601 Z M 105.985 21.434 L 84.38 21.434 L 84.38 42.941 L 105.985 42.941 L 105.985 21.434 Z" fill="#1D63ED"/>
</svg>