<?xml version="1.0" encoding="UTF-8"?>
<svg width="27" height="27" role="img" version="1.1" viewBox="0 0 27 27" xmlns="http://www.w3.org/2000/svg" xmlns:cc="http://creativecommons.org/ns#" xmlns:dc="http://purl.org/dc/elements/1.1/" xmlns:rdf="http://www.w3.org/1999/02/22-rdf-syntax-ns#">
 <metadata>
  <rdf:RDF>
   <cc:Work rdf:about="">
    <dc:format>image/svg+xml</dc:format>
    <dc:type rdf:resource="http://purl.org/dc/dcmitype/StillImage"/>
    <dc:title>WordPress.org</dc:title>
   </cc:Work>
  </rdf:RDF>
 </metadata>
 <title>WordPress.org</title>
 <g>
  <circle cx="13.5" cy="13.5" r="13" fill="#fff" style="paint-order:stroke fill markers"/>
  <path d="m13.5 0.81c2.538 0 5.0085 0.756 7.101 2.1735 2.0385 1.377 3.645 3.321 4.6035 5.589 1.674 3.9555 1.2285 8.478-1.1745 12.028-1.377 2.0385-3.321 3.645-5.589 4.6035-3.9555 1.674-8.478 1.2285-12.028-1.1745-2.0385-1.377-3.645-3.321-4.6035-5.589-1.674-3.9555-1.2285-8.478 1.1745-12.028 1.377-2.0385 3.321-3.645 5.589-4.6035 1.5525-0.6615 3.24-0.999 4.9275-0.999zm0-0.81c-7.452 0-13.5 6.048-13.5 13.5 0 7.452 6.048 13.5 13.5 13.5 7.452 0 13.5-6.048 13.5-13.5 0-7.452-6.048-13.5-13.5-13.5z" fill="#3858e9"/>
  <path d="m2.2549 13.5c0 4.3065 2.457 8.2485 6.345 10.125l-5.373-14.701c-0.648 1.4445-0.972 2.997-0.972 4.5765zm18.846-0.567c0-1.3905-0.4995-2.349-0.9315-3.105-0.432-0.756-1.107-1.7145-1.107-2.6325s0.783-1.998 1.89-1.998h0.1485c-4.5765-4.1985-11.691-3.888-15.889 0.702-0.405 0.4455-0.783 0.918-1.107 1.4175h0.729c1.1745 0 2.997-0.1485 2.997-0.1485 0.6075-0.0405 0.675 0.8505 0.0675 0.9315 0 0-0.6075 0.0675-1.2825 0.108l4.0905 12.19 2.457-7.3845-1.755-4.806c-0.6075-0.0405-1.1745-0.108-1.1745-0.108-0.60749-0.0405-0.53999-0.9585 0.0675-0.9315 0 0 1.863 0.1485 2.9565 0.1485s2.997-0.1485 2.997-0.1485c0.6075-0.0405 0.675 0.8505 0.0675 0.9315 0 0-0.6075 0.0675-1.2825 0.108l4.0635 12.096 1.161-3.672c0.513-1.6065 0.8235-2.7405 0.8235-3.7125zm-7.4115 1.539-3.375 9.8145c2.268 0.6615 4.6845 0.6075 6.912-0.1755l-0.081-0.1485zm9.6795-6.372c0.054 0.378 0.081 0.7695 0.081 1.161 0 1.1475-0.216 2.43-0.8505 4.023l-3.4425 9.936c5.265-3.0645 7.1415-9.774 4.212-15.12z" fill="#3858e9"/>
 </g>
</svg>
