<?xml version="1.0" encoding="UTF-8" standalone="no"?><!DOCTYPE svg PUBLIC "-//W3C//DTD SVG 1.1//EN" "http://www.w3.org/Graphics/SVG/1.1/DTD/svg11.dtd"><svg width="100%" height="100%" viewBox="0 0 512 512" version="1.1" xmlns="http://www.w3.org/2000/svg" xmlns:xlink="http://www.w3.org/1999/xlink" xml:space="preserve" xmlns:serif="http://www.serif.com/" style="fill-rule:evenodd;clip-rule:evenodd;stroke-linejoin:round;stroke-miterlimit:2;"><path d="M512,128l0,256c0,70.645 -57.355,128 -128,128l-256,0c-70.645,0 -128,-57.355 -128,-128l0,-256c0,-70.645 57.355,-128 128,-128l256,0c70.645,0 128,57.355 128,128Z" style="fill:#fff;"/><path d="M258.411,84.453c17.485,-14.957 39.93,-23.953 64.396,-23.953c55.735,0 100.985,46.682 100.985,104.18c0,41.512 -23.585,74.565 -57.674,91.304l-0,12.876c0,5.818 -4.717,10.535 -10.535,10.535l-0,49.716c0,3.13 -1.39,6.098 -3.795,8.102l-2.402,2.001c-4.804,4.003 -7.581,9.933 -7.581,16.187l0,4.167c0,5.941 2.639,11.574 7.202,15.377l2.781,2.317c2.404,2.004 3.795,4.972 3.795,8.102l-0,33.565c-0,3.129 -1.385,6.098 -3.782,8.109l-13.776,11.554l-12.263,10.379c-1.905,1.613 -4.321,2.498 -6.817,2.498l-8.04,0c-5.412,0.304 -10.71,-1.644 -14.636,-5.382c-3.926,-3.738 -6.133,-8.932 -6.096,-14.353l1.029,-152.339c-5.818,-0 -10.535,-4.717 -10.535,-10.535l0,-12.876c-8.67,-4.258 -16.737,-9.57 -23.945,-15.809c22.42,-18.653 36.656,-46.455 36.656,-78.132c0,-30.867 -13.525,-58.6 -34.966,-77.591Zm-4.822,152.902c-19.352,-18.123 -31.766,-43.278 -31.766,-72.674c0,-30.724 12.92,-58.36 33.456,-77.435c20.795,18.235 33.932,44.995 33.932,74.798c0,30.597 -13.854,57.418 -35.622,75.311Zm69.219,-138.226c-14.859,0 -26.923,12.064 -26.923,26.923c0,14.859 12.064,26.923 26.923,26.923c14.859,0 26.923,-12.064 26.923,-26.923c0,-14.859 -12.064,-26.923 -26.923,-26.923Z"/><clipPath id="_clip1"><path d="M258.411,84.453c17.485,-14.957 39.93,-23.953 64.396,-23.953c55.735,0 100.985,46.682 100.985,104.18c0,41.512 -23.585,74.565 -57.674,91.304l-0,12.876c0,5.818 -4.717,10.535 -10.535,10.535l-0,49.716c0,3.13 -1.39,6.098 -3.795,8.102l-2.402,2.001c-4.804,4.003 -7.581,9.933 -7.581,16.187l0,4.167c0,5.941 2.639,11.574 7.202,15.377l2.781,2.317c2.404,2.004 3.795,4.972 3.795,8.102l-0,33.565c-0,3.129 -1.385,6.098 -3.782,8.109l-13.776,11.554l-12.263,10.379c-1.905,1.613 -4.321,2.498 -6.817,2.498l-8.04,0c-5.412,0.304 -10.71,-1.644 -14.636,-5.382c-3.926,-3.738 -6.133,-8.932 -6.096,-14.353l1.029,-152.339c-5.818,-0 -10.535,-4.717 -10.535,-10.535l0,-12.876c-8.67,-4.258 -16.737,-9.57 -23.945,-15.809c22.42,-18.653 36.656,-46.455 36.656,-78.132c0,-30.867 -13.525,-58.6 -34.966,-77.591Zm-4.822,152.902c-19.352,-18.123 -31.766,-43.278 -31.766,-72.674c0,-30.724 12.92,-58.36 33.456,-77.435c20.795,18.235 33.932,44.995 33.932,74.798c0,30.597 -13.854,57.418 -35.622,75.311Zm69.219,-138.226c-14.859,0 -26.923,12.064 -26.923,26.923c0,14.859 12.064,26.923 26.923,26.923c14.859,0 26.923,-12.064 26.923,-26.923c0,-14.859 -12.064,-26.923 -26.923,-26.923Z"/></clipPath><g clip-path="url(#_clip1)"><path d="M319.642,451.446c-1.199,-0.246 -2.102,-1.309 -2.102,-2.58l0,-166.837c0,-1.454 1.18,-2.634 2.634,-2.634l5.268,0c1.454,0 2.634,1.18 2.634,2.634l0,164.984l-2.313,1.958c-1.727,1.462 -3.874,2.326 -6.12,2.475Z" style="fill:#1a1a1a;"/></g><path d="M256.722,240.175c-9.808,8.16 -21.183,14.57 -33.618,18.786l15.836,14.76c3.014,2.809 4.731,6.741 4.743,10.861c0.012,4.12 -1.682,8.062 -4.68,10.889l-16.445,15.507l16.293,15.227c3.019,2.822 4.739,6.766 4.751,10.899c0.012,4.133 -1.684,8.087 -4.687,10.927l-16.348,15.458l14.976,13.861c4.507,4.172 7.069,10.035 7.069,16.176l-0,1.105c0,5.932 -2.391,11.614 -6.633,15.761l-16.419,16.052l-24.439,24.161c-1.929,1.907 -4.531,2.976 -7.243,2.976l-1.356,0c-2.757,-0 -5.399,-1.105 -7.335,-3.068l-20.573,-20.856c-7.342,-7.443 -11.425,-17.499 -11.349,-27.954l1.046,-144.888c-37.66,-15.507 -64.184,-51.536 -64.184,-94.774c0,-57.193 46.434,-103.627 103.627,-103.627c26.326,0 50.373,9.838 68.66,26.036c-1.063,0.909 -2.107,1.84 -3.132,2.792c-17.506,-15.351 -40.438,-24.662 -65.528,-24.662c-54.893,0 -99.46,44.567 -99.46,99.46c0,41.973 26.07,76.851 62.878,91.436c0.799,0.317 1.322,1.092 1.316,1.952l-1.056,146.304c-0.067,9.349 3.584,18.342 10.149,24.998l20.573,20.856c1.153,1.169 2.726,1.827 4.368,1.827l1.356,-0c1.615,-0 3.165,-0.637 4.314,-1.772l24.443,-24.165l0.008,-0.008l16.424,-16.056c3.44,-3.363 5.379,-7.971 5.379,-12.782l0,-1.105c0,-4.98 -2.078,-9.735 -5.733,-13.118l-16.029,-14.836c-0.426,-0.394 -0.668,-0.948 -0.668,-1.529l0,-1.087c0,-0.573 0.236,-1.12 0.652,-1.514l17.385,-16.439c2.168,-2.05 3.392,-4.904 3.383,-7.887c-0.009,-2.983 -1.25,-5.83 -3.429,-7.867l-17.331,-16.197c-0.422,-0.394 -0.661,-0.945 -0.661,-1.522l0,-1.095c0,-0.574 0.237,-1.122 0.654,-1.516l17.477,-16.48c2.16,-2.037 3.38,-4.877 3.372,-7.845c-0.009,-2.969 -1.246,-5.801 -3.417,-7.826l-17.422,-16.238c-0.423,-0.394 -0.663,-0.946 -0.663,-1.524l0,-1.256c0,-0.911 0.592,-1.716 1.461,-1.988c12.64,-3.959 24.198,-10.257 34.114,-18.408c1.025,0.96 2.07,1.9 3.133,2.82Zm-66.971,-143.242c15.644,0 28.345,12.701 28.345,28.345c0,15.644 -12.701,28.345 -28.345,28.345c-15.644,0 -28.345,-12.701 -28.345,-28.345c0,-15.644 12.701,-28.345 28.345,-28.345Zm0,4.167c-13.344,0 -24.178,10.834 -24.178,24.178c0,13.344 10.834,24.178 24.178,24.178c13.344,0 24.178,-10.834 24.178,-24.178c0,-13.344 -10.834,-24.178 -24.178,-24.178Z"/></svg>