<svg xmlns="http://www.w3.org/2000/svg" class="blacklight-client__header-logo" viewBox="0 0 371.7 177.2"><path d="M332.6 56c-26.9 35.4-60.9 80.4-87.8 115.8-1.4 1.9-3.1 4.2-5.1 4.9-7.8 2.8-35.3-7.9-38.8-15.6-1.5-3.3-1.1-8.4.4-11.9 11.3-26.6 23-53 34.7-79.4 1.4-3.1 2.8-6.1 4.2-9.2l-2.9-2c-18.1 24-36.6 47.8-54.1 72.2-8.6 12-15.8 25.1-22.9 38-3.2 5.8-6.6 7.7-12.6 4.6-1.6-.8-3.3-1.3-4.9-2-21.3-9.6-23.4-13.4-15-34.5 8.7-21.9 18.4-43.5 27.8-65.2 1.3-3.1 2.8-6.2 4.2-9.3-30.6 33.4-61.8 65.7-79.5 107.9-.9 2.1-5.8 4.6-7.5 3.8-10.3-4.5-20.2-9.7-29.8-15.6-1.6-1-.8-8 .7-11.3 20.2-41.9 40.8-83.6 61-125.4 2.9-6 4.5-12.5 7.8-21.8l45.6 14.9c-14 23.3-26.8 44.2-39.4 65.3l2.8 1.8c8.3-9.9 16.3-19.9 25.1-29.3 14.2-15.2 28-31 43.6-44.7 9.6-8.5 32.1-4.8 38.4 6.1 1.3 2.3-.2 7.2-1.9 10-10.9 18.4-23.7 36.1-34.9 54.4l2.8 2.2c3-3.4 5.9-7 9.1-10.2 22.1-22.2 41-43 64.5-64.1 8.8-8 32.7-2.2 37.2 8.1 1.1 2.4-1.1 7.2-3 9.9-21.4 30.9-37.8 64.4-51.4 99.4-.1.1-.1.3-.2.4l3 2c26.3-23.9 53.7-59.5 73.3-87.6 12.6 5.5 12.7 7.9 5.5 17.4z" fill="#60f" class="blacklight-client__header-logo-scribble"></path></svg>