<svg xmlns="http://www.w3.org/2000/svg" viewBox="0 0 574.07 300.4"><defs><style>.a{opacity:0.1;}.b{fill:#339;}.c{opacity:0.3;}</style></defs><title>logo-blue</title><g class="a"><path class="b" d="M712.36,349.29l-52,29.9a6.48,6.48,0,0,1,2,3.31L714,352.58A6.47,6.47,0,0,1,712.36,349.29Z" transform="translate(-371.66 -233.8)"/><path class="b" d="M658,449.42V390.18a6.47,6.47,0,0,1-4,0v59.23a6.47,6.47,0,0,1,4,0Z" transform="translate(-371.66 -233.8)"/><path class="b" d="M651.63,379.2,599,349a6.47,6.47,0,0,1-1.68,3.5l52.27,30.24A6.48,6.48,0,0,1,651.63,379.2Z" transform="translate(-371.66 -233.8)"/><path class="b" d="M721,414.71V354.19a6.38,6.38,0,0,1-3.7.24v60a6.38,6.38,0,0,1,3.7.24Z" transform="translate(-371.66 -233.8)"/><path class="b" d="M660.68,316l51.91,30a6.5,6.5,0,0,1,2.27-3.13l-52.45-30.35A6.47,6.47,0,0,1,660.68,316Z" transform="translate(-371.66 -233.8)"/><path class="b" d="M586.24,422.15l-50.58,29.26a6.47,6.47,0,0,1,1.43,3.33L588,425.4A6.49,6.49,0,0,1,586.24,422.15Z" transform="translate(-371.66 -233.8)"/><path class="b" d="M654,246.48v58.83a6.47,6.47,0,0,1,4,0V246.48a6.47,6.47,0,0,1-4,0Z" transform="translate(-371.66 -233.8)"/><path class="b" d="M723.56,425.16l50.32,29.11a6.48,6.48,0,0,1,2-3.51L725.18,421.7A6.47,6.47,0,0,1,723.56,425.16Z" transform="translate(-371.66 -233.8)"/><path class="b" d="M588.76,342.87l-51.67-29.62a6.47,6.47,0,0,1-1.46,3.33l50.81,29.47A6.5,6.5,0,0,1,588.76,342.87Z" transform="translate(-371.66 -233.8)"/><path class="b" d="M591,354.39v60.11a6.37,6.37,0,0,1,3.7.15V354.25a6.37,6.37,0,0,1-3.7.15Z" transform="translate(-371.66 -233.8)"/><path class="b" d="M777.52,461.44a6.52,6.52,0,0,1-2.68-2.29L661.52,524.28a6.46,6.46,0,0,1,1,3.42c0,.08,0,.17,0,.25Z" transform="translate(-371.66 -233.8)"/><path class="b" d="M662.5,240.3a6.46,6.46,0,0,1-1,3.43l113.91,66a6.52,6.52,0,0,1,2.82-3L662.49,240C662.49,240.12,662.5,240.21,662.5,240.3Z" transform="translate(-371.66 -233.8)"/><path class="b" d="M530.65,449a6.51,6.51,0,0,1,1,.09V318.81a6.33,6.33,0,0,1-3.7-.48V449.62A6.47,6.47,0,0,1,530.65,449Z" transform="translate(-371.66 -233.8)"/><path class="b" d="M533.75,306.69a6.52,6.52,0,0,1,2.78,3l114-65.93a6.46,6.46,0,0,1-1-3.43c0-.09,0-.18,0-.27Z" transform="translate(-371.66 -233.8)"/><path class="b" d="M649.5,527.7a6.46,6.46,0,0,1,1-3.43l-114-65.94a6.52,6.52,0,0,1-2.57,2.81l115.56,66.81C649.51,527.87,649.5,527.78,649.5,527.7Z" transform="translate(-371.66 -233.8)"/><path class="b" d="M781.35,318.9a6.51,6.51,0,0,1-1-.09V449.05a6.46,6.46,0,0,1,3.7,1.19V318.33A6.47,6.47,0,0,1,781.35,318.9Z" transform="translate(-371.66 -233.8)"/><path class="b" d="M650.78,451.74,599,421.8a6.47,6.47,0,0,1-1.76,3.53l52.25,30.09A6.46,6.46,0,0,1,650.78,451.74Z" transform="translate(-371.66 -233.8)"/><path class="b" d="M658,521.52V461.78a6.47,6.47,0,0,1-4,0v59.73a6.47,6.47,0,0,1,4,0Z" transform="translate(-371.66 -233.8)"/><path class="b" d="M722.88,343.08a6.5,6.5,0,0,1,2.11,3.21l51.38-29.72a6.47,6.47,0,0,1-1.45-3.24Z" transform="translate(-371.66 -233.8)"/><path class="b" d="M598.88,346.44,651.33,316a6.47,6.47,0,0,1-1.73-3.46l-52.82,30.57A6.5,6.5,0,0,1,598.88,346.44Z" transform="translate(-371.66 -233.8)"/><path class="b" d="M712.35,421.9l-51.09,29.9a6.46,6.46,0,0,1,1.23,3.62l51.84-29.85A6.48,6.48,0,0,1,712.35,421.9Z" transform="translate(-371.66 -233.8)"/></g><path class="b" d="M371.66,402.8V367.52l12.12-12.24h32.88L429,367.76v11H413.18v-5.88l-4.2-4.2H391.7l-4.2,4.2V397.4l4.2,4.2H409l4.2-4.2v-5.88H429v11L416.66,415H383.78Z" transform="translate(-371.66 -233.8)"/><path class="b" d="M439.82,355.28h14.64v10l9.6-10h17v13.44H467.3l-11.64,12V415H439.82Z" transform="translate(-371.66 -233.8)"/><path class="b" d="M545.66,355.28v73.44l-13,12.84H501.26l-11.16-11v-8.16h15.84V426l2.28,2.4h17.52l4.08-4.2v-18L520.94,415h-19.8l-12.84-13v-46.8h15.84V397.4l4.08,4.2h10.44l11.16-11.88V355.28Z" transform="translate(-371.66 -233.8)"/><path class="b" d="M560.06,355.28H574.7V364l8.76-8.76h23.28l12.36,12.48v34.8L606.74,415H583.58l-7.68-6.36v31.8H560.06Zm39,46.32,4.2-4.2V372.92l-4.2-4.2H585.5l-9.6,9.72v14.64l9.48,8.52Z" transform="translate(-371.66 -233.8)"/><path class="b" d="M635.9,402.8V368.6H625.1V355.28h11V335.84h15.6v19.44H670v13.44H651.74v28.92l4.08,4H670V415H648.26Z" transform="translate(-371.66 -233.8)"/><path class="b" d="M675.38,355.28h16.08L698.3,393h.48l10.8-37.68H724l10,37.68h.48L742,355.28h16.08L742.58,415H727.82l-11-40.32h-.48L704.54,415H689.78Z" transform="translate(-371.66 -233.8)"/><path class="b" d="M765.26,402.8v-35l12.36-12.48h33.72l12.48,12.48v22.68H781.1v7.68l3.84,4H804.5l3.6-3.72v-3.12h15.6V403l-11.88,12H777.38ZM808,379.4v-7l-4.08-4.2H785.18l-4.08,4.2v7Z" transform="translate(-371.66 -233.8)"/><path class="b" d="M836.42,355.28h14.64v10l9.6-10h17v13.44H863.9l-11.64,12V415H836.42Z" transform="translate(-371.66 -233.8)"/><path class="b" d="M885.5,329.36h15.84v47.88h10.44l15.24-22h17.52l-19.92,28.8,21.12,31H928.22l-16.8-24.36H901.34V415H885.5Z" transform="translate(-371.66 -233.8)"/><g class="c"><circle class="b" cx="284.34" cy="150.2" r="6.5"/><circle class="b" cx="284.34" cy="77.7" r="6.5"/><circle class="b" cx="220.94" cy="114.3" r="6.5"/><circle class="b" cx="347.09" cy="114.3" r="6.5"/><circle class="b" cx="284.34" cy="221.8" r="6.5"/><circle class="b" cx="347.09" cy="187" r="6.5"/><circle class="b" cx="220.94" cy="187" r="6.5"/><circle class="b" cx="284.34" cy="293.9" r="6.5"/><circle class="b" cx="284.34" cy="6.5" r="6.5"/><circle class="b" cx="409.69" cy="78.6" r="6.5"/><circle class="b" cx="158.99" cy="78.6" r="6.5"/><circle class="b" cx="158.99" cy="221.75" r="6.5"/><circle class="b" cx="408.59" cy="221.75" r="6.5"/></g></svg>