<?xml version="1.0" standalone="no"?>
<!DOCTYPE svg PUBLIC "-//W3C//DTD SVG 20010904//EN"
 "http://www.w3.org/TR/2001/REC-SVG-20010904/DTD/svg10.dtd">
<svg version="1.0" xmlns="http://www.w3.org/2000/svg"
 width="512.000000pt" height="512.000000pt" viewBox="0 0 512.000000 512.000000"
 preserveAspectRatio="xMidYMid meet">
<metadata>
Created by potrace 1.11, written by Peter Selinger 2001-2013
</metadata>
<g transform="translate(0.000000,512.000000) scale(0.100000,-0.100000)"
fill="#000000" stroke="none">
<path d="M700 3020 l0 -1800 250 0 250 0 0 760 0 760 250 0 250 0 0 -1195 0
-1195 250 0 250 0 0 840 0 840 845 0 845 0 0 -840 0 -840 250 0 250 0 0 1800
0 1800 -250 0 -250 0 0 -740 0 -740 -845 0 -845 0 0 134 0 133 143 7 c330 17
548 98 716 266 216 216 326 524 307 858 -18 329 -134 566 -360 740 -77 59
-223 134 -312 161 -171 50 -186 51 -1120 51 l-874 0 0 -1800z m1740 1336 c219
-61 351 -191 401 -396 20 -80 17 -298 -4 -380 -39 -145 -121 -253 -242 -317
-81 -42 -222 -83 -317 -90 l-78 -6 0 392 0 391 -250 0 -250 0 0 -395 0 -395
-250 0 -250 0 0 611 0 610 588 -3 c527 -4 594 -6 652 -22z"/>
</g>
</svg>
