<?xml version="1.0" encoding="utf-8"?>
<svg viewBox="0 0 100 100" xmlns="http://www.w3.org/2000/svg" xmlns:xlink="http://www.w3.org/1999/xlink">
  <g transform="matrix(2.380952, 0, 0, 2.380952, -7.142851, -3.571422)">
    <g transform="translate(24 22.5)">
      <g transform="translate(0 0)">
        <g transform="rotate(0)">
          <g transform="scale(1 1)">
            <g transform="skewX(0) skewY(0)">
              <g transform="translate(-24 -22.5)" opacity="1">
                <rect y="1.5" fill="rgba(46, 52, 54, 1)" ry="6" width="42" x="3" height="42" stroke-width="0" rx="6" stroke="none"/>
              </g>
            </g>
          </g>
        </g>
      </g>
    </g>
    <g transform="translate(24 22.5)">
      <g transform="translate(0 0)">
        <g transform="rotate(0)">
          <g transform="scale(1 1)">
            <g transform="skewX(0) skewY(0)">
              <g transform="translate(-24 -22.5)" opacity="1">
                <path fill="rgba(85, 87, 83, 1)" d="M9 2.5938C6.2609 2.5938 4.0938 4.7609 4.0938 7.5C4.0938 7.5 4.0938 37.5 4.0938 37.5C4.0938 40.2391 6.2609 42.4062 9 42.4062C9 42.4062 39 42.4062 39 42.4062C41.7391 42.4062 43.9062 40.2391 43.9062 37.5C43.9062 37.5 43.9062 7.5 43.9062 7.5C43.9062 4.7609 41.7392 2.5938 39.0002 2.5938C39.0002 2.5938 9.0002 2.5938 9.0002 2.5938C9.0002 2.5938 9 2.5938 9 2.5938Z" stroke-width="0" stroke="none"/>
              </g>
            </g>
          </g>
        </g>
      </g>
    </g>
    <g transform="translate(9.62475 14.2188)">
      <g transform="translate(0 0)">
        <g transform="rotate(0)">
          <g transform="scale(1 1)">
            <g transform="skewX(0) skewY(0)">
              <g transform="translate(-9.62475 -14.2188)" opacity="1">
                <path fill="rgba(46, 52, 54, 1)" d="M9 2.5938C8.75374 2.5938 8.5171 2.62243 8.28125 2.6563C8.28125 2.6563 4.09375 11.4688 4.09375 11.4688C4.09375 11.4688 4.09375 25.8438 4.09375 25.8438C4.09375 25.8438 15.1558 2.5938 15.1558 2.5938C15.1558 2.5938 8.99955 2.5938 8.99955 2.5938C8.99955 2.5938 9 2.5938 9 2.5938Z" stroke-width="0" stroke="none"/>
              </g>
            </g>
          </g>
        </g>
      </g>
    </g>
    <g transform="translate(38.2031 30.4373)">
      <g transform="translate(0 0)">
        <g transform="rotate(0)">
          <g transform="scale(1 1)">
            <g transform="skewX(0) skewY(0)">
              <g transform="translate(-38.2031 -30.4373)" opacity="1">
                <path fill="rgba(46, 52, 54, 1)" d="M43.906 18.469C43.906 18.469 32.5 42.406 32.5 42.406C32.5 42.406 39 42.406 39 42.406C39.1286 42.406 39.2491 42.3841 39.375 42.3747C39.375 42.3747 43.9062 32.8435 43.9062 32.8435C43.9062 32.8435 43.9062 18.4685 43.9062 18.4685C43.9062 18.4685 43.906 18.469 43.906 18.469Z" stroke-width="0" stroke="none"/>
              </g>
            </g>
          </g>
        </g>
      </g>
    </g>
    <g transform="translate(20.1092 30.4377)">
      <g transform="translate(0 0)">
        <g transform="rotate(0)">
          <g transform="scale(1 1)">
            <g transform="skewX(0) skewY(0)">
              <g transform="translate(-20.1092 -30.4377)" opacity="1">
                <path fill="url(#0x00005594f66b4840)" d="M9.25 18.469C9.25 18.469 4.0938 29.313 4.0938 29.313C4.0938 29.313 4.0938 37.5005 4.0938 37.5005C4.0938 40.2396 6.2609 42.4067 9 42.4067C9 42.4067 30.812 42.4067 30.812 42.4067C30.812 42.4067 36.1245 31.2187 36.1245 31.2187C36.1245 31.2187 9.2495 18.4687 9.2495 18.4687C9.2495 18.4687 9.25 18.469 9.25 18.469Z" stroke-width="0" stroke="none"/>
              </g>
            </g>
          </g>
        </g>
      </g>
    </g>
    <g transform="translate(38.9373 31.9223)">
      <g transform="translate(0 0)">
        <g transform="rotate(0)">
          <g transform="scale(1 1)">
            <g transform="skewX(0) skewY(0)">
              <g transform="translate(-38.9373 -31.9223)" opacity="1">
                <path fill="rgba(238, 238, 236, 1)" d="M43.906 21.438C43.906 21.438 43.3435 22.6255 43.3435 22.6255C43.3435 22.6255 43.906 22.8755 43.906 22.8755C43.906 22.8755 43.906 21.438 43.906 21.438ZM42.406 24.6255C42.406 24.6255 41.4372 26.6255 41.4372 26.6255C41.4372 26.6255 43.906 27.7817 43.906 27.7817C43.906 27.7817 43.906 25.3442 43.906 25.3442C43.906 25.3442 42.406 24.6255 42.406 24.6255C42.406 24.6255 42.406 24.6255 42.406 24.6255ZM40.4998 28.6255C40.4998 28.6255 39.531 30.6567 39.531 30.6567C39.531 30.6567 42.781 32.1879 42.781 32.1879C42.781 32.1879 43.7498 30.1879 43.7498 30.1879C43.7498 30.1879 40.4998 28.6254 40.4998 28.6254C40.4998 28.6254 40.4998 28.6255 40.4998 28.6255ZM38.5936 32.6567C38.5936 32.6567 37.6248 34.6879 37.6248 34.6879C37.6248 34.6879 40.8748 36.2191 40.8748 36.2191C40.8748 36.2191 41.8123 34.2191 41.8123 34.2191C41.8123 34.2191 38.5935 32.6566 38.5935 32.6566C38.5935 32.6566 38.5936 32.6567 38.5936 32.6567ZM36.6874 36.6879C36.6874 36.6879 35.7186 38.6879 35.7186 38.6879C35.7186 38.6879 38.9686 40.2191 38.9686 40.2191C38.9686 40.2191 39.9061 38.2191 39.9061 38.2191C39.9061 38.2191 36.6873 36.6879 36.6873 36.6879C36.6873 36.6879 36.6874 36.6879 36.6874 36.6879ZM34.7499 40.6879C34.7499 40.6879 33.9686 42.4067 33.9686 42.4067C33.9686 42.4067 37.9374 42.4067 37.9374 42.4067C37.9374 42.4067 37.9994 42.2497 37.9994 42.2497C37.9994 42.2497 34.7494 40.6877 34.7494 40.6877C34.7494 40.6877 34.7499 40.6879 34.7499 40.6879Z" stroke-width="0" stroke="none"/>
              </g>
            </g>
          </g>
        </g>
      </g>
    </g>
    <g transform="translate(8.90642 12.7189)">
      <g transform="translate(0 0)">
        <g transform="rotate(0)">
          <g transform="scale(1 1)">
            <g transform="skewX(0) skewY(0)">
              <g transform="translate(-8.90642 -12.7189)" opacity="1">
                <path fill="rgba(238, 238, 236, 1)" d="M11.594 2.5938C11.594 2.5938 13.3128 3.4063 13.3128 3.4063C13.3128 3.4063 13.719 2.5938 13.719 2.5938C13.719 2.5938 11.594 2.5938 11.594 2.5938C11.594 2.5938 11.594 2.5938 11.594 2.5938ZM9.125 3.875C9.125 3.875 8.1562 5.9062 8.1562 5.9062C8.1562 5.9062 11.4062 7.4374 11.4062 7.4374C11.4062 7.4374 12.375 5.4374 12.375 5.4374C12.375 5.4374 9.12495 3.8749 9.12495 3.8749C9.12495 3.8749 9.125 3.875 9.125 3.875ZM7.2188 7.9062C7.2188 7.9062 6.25005 9.9062 6.25005 9.9062C6.25005 9.9062 9.50005 11.4374 9.50005 11.4374C9.50005 11.4374 10.4688 9.4374 10.4688 9.4374C10.4688 9.4374 7.2188 7.9062 7.2188 7.9062ZM5.3126 11.9062C5.3126 11.9062 4.34385 13.9374 4.34385 13.9374C4.34385 13.9374 7.59385 15.4686 7.59385 15.4686C7.59385 15.4686 8.5626 13.4686 8.5626 13.4686C8.5626 13.4686 5.3126 11.9061 5.3126 11.9061C5.3126 11.9061 5.3126 11.9062 5.3126 11.9062ZM4.0938 16.2502C4.0938 16.2502 4.0938 18.719 4.0938 18.719C4.0938 18.719 5.6875 19.5 5.6875 19.5C5.6875 19.5 6.625 17.469 6.625 17.469C6.625 17.469 4.0938 16.25 4.0938 16.25C4.0938 16.25 4.0938 16.2502 4.0938 16.2502ZM4.0938 21.1877C4.0938 21.1877 4.0938 22.8439 4.0938 22.8439C4.0938 22.8439 4.7188 21.5001 4.7188 21.5001C4.7188 21.5001 4.0938 21.1876 4.0938 21.1876C4.0938 21.1876 4.0938 21.1877 4.0938 21.1877Z" stroke-width="0" stroke="none"/>
              </g>
            </g>
          </g>
        </g>
      </g>
    </g>
    <g transform="translate(26.9063 16.2343)">
      <g transform="translate(0 0)">
        <g transform="rotate(0)">
          <g transform="scale(1 1)">
            <g transform="skewX(0) skewY(0)">
              <g transform="translate(-26.9063 -16.2343)" opacity="1">
                <path fill="url(#0x00005594f67031e0)" d="M16.781 2.5938C16.781 2.5938 9.9062 17.1248 9.9062 17.1248C9.9062 17.1248 36.7502 29.8748 36.7502 29.8748C36.7502 29.8748 43.9064 14.8438 43.9064 14.8438C43.9064 14.8438 43.9064 7.5 43.9064 7.5C43.9064 6.91888 43.805 6.3581 43.6251 5.8438C43.6251 5.8438 36.7501 2.5938 36.7501 2.5938C36.7501 2.5938 16.7811 2.5938 16.7811 2.5938C16.7811 2.5938 16.781 2.5938 16.781 2.5938Z" stroke-width="0" stroke="none"/>
              </g>
            </g>
          </g>
        </g>
      </g>
    </g>
    <g transform="translate(24 22.5)">
      <g transform="translate(0 0)">
        <g transform="rotate(0)">
          <g transform="scale(1 1)">
            <g transform="skewX(0) skewY(0)">
              <g transform="translate(-24 -22.5)" opacity="1">
                <path fill="none" d="M9 3.2188C6.5944 3.2188 4.7188 5.0944 4.7188 7.5C4.7188 7.5 4.7188 37.5 4.7188 37.5C4.7188 39.9056 6.5944 41.7812 9 41.7812C9 41.7812 39 41.7812 39 41.7812C41.4056 41.7812 43.2812 39.9056 43.2812 37.5C43.2812 37.5 43.2812 7.5 43.2812 7.5C43.2812 5.0944 41.4062 3.2188 39.0002 3.2188C39.0002 3.2188 9.0002 3.2188 9.0002 3.2188C9.0002 3.2188 9 3.2188 9 3.2188Z" stroke-width="1" stroke="url(#0x00005594f6b5fa00)"/>
              </g>
            </g>
          </g>
        </g>
      </g>
    </g>
    <g transform="translate(23.9998 13.6249)">
      <g transform="translate(0 0)">
        <g transform="rotate(0)">
          <g transform="scale(1 1)">
            <g transform="skewX(0) skewY(0)">
              <g transform="translate(-23.9998 -13.6249)" opacity="0.6">
                <path fill="url(#0x00005594f6b64dc0)" d="M9 2.5938C6.2609 2.5938 4.0938 4.7609 4.0938 7.5C4.0938 7.5 4.0938 24.656 4.0938 24.656C16.1788 19.5229 29.7748 15.0865 43.9058 12.125C43.9058 12.125 43.9058 7.5 43.9058 7.5C43.9058 4.7609 41.7387 2.5938 38.9996 2.5938C38.9996 2.5938 8.9996 2.5938 8.9996 2.5938C8.9996 2.5938 9 2.5938 9 2.5938Z" stroke-width="0" stroke="none"/>
              </g>
            </g>
          </g>
        </g>
      </g>
    </g>
  </g>
  <defs>
    <linearGradient id="0x00005594f5531200">
      <stop stop-color="rgba(52, 101, 164, 1)" offset="0"/>
      <stop stop-color="rgba(32, 74, 135, 1)" offset="1"/>
    </linearGradient>
    <linearGradient id="0x00005594f5530360">
      <stop stop-color="rgba(255, 255, 255, 0.8)" offset="0"/>
      <stop stop-color="rgba(255, 255, 255, 0)" offset="1"/>
    </linearGradient>
    <linearGradient id="0x00005594f6ad8a20">
      <stop stop-color="rgba(238, 238, 236, 1)" offset="0"/>
      <stop stop-color="rgba(238, 238, 236, 0)" offset="1"/>
    </linearGradient>
    <linearGradient id="0x00005594f6ad8ea0">
      <stop stop-color="rgba(255, 183, 0, 1)" offset="0"/>
      <stop stop-color="rgba(255, 114, 0, 1)" offset="1"/>
    </linearGradient>
    <radialGradient cx="14.7591" id="0x00005594f66b4840" gradientUnits="userSpaceOnUse" cy="22.0171" r="19.3033" xlink:href="#0x00005594f5531200"/>
    <radialGradient cx="28.3529" id="0x00005594f67031e0" gradientUnits="userSpaceOnUse" cy="3.36315" r="14.9594" xlink:href="#0x00005594f6ad8ea0"/>
    <radialGradient cx="23.388" id="0x00005594f6b5fa00" gradientUnits="userSpaceOnUse" cy="3.7483" r="44.0675" xlink:href="#0x00005594f6ad8a20"/>
    <radialGradient cx="4.0938" id="0x00005594f6b64dc0" gradientUnits="userSpaceOnUse" cy="-59.512" r="92.5983" xlink:href="#0x00005594f5530360"/>
  </defs>
</svg>