<?xml version="1.0" encoding="UTF-8" standalone="no"?>
<svg xmlns="http://www.w3.org/2000/svg" xmlns:xlink="http://www.w3.org/1999/xlink" width="48" height="48">
  <defs>
    <linearGradient id="f">
      <stop stop-color="#4d4d4d"/>
      <stop offset="1" stop-color="#31363b"/>
    </linearGradient>
    <linearGradient id="e">
      <stop/>
      <stop offset="1" stop-opacity="0"/>
    </linearGradient>
    <linearGradient id="d">
      <stop stop-color="#c0392b"/>
      <stop offset="1" stop-color="#c0392b" stop-opacity="0"/>
    </linearGradient>
    <linearGradient id="c">
      <stop stop-color="#da4453"/>
      <stop offset="1" stop-color="#ff7336"/>
    </linearGradient>
    <linearGradient id="b">
      <stop stop-color="#fcfcfc"/>
      <stop offset="1" stop-color="#eff0f1"/>
    </linearGradient>
    <linearGradient id="a">
      <stop stop-color="#e5e7e8"/>
      <stop offset="1" stop-color="#dcdee0"/>
    </linearGradient>
    <linearGradient xlink:href="#a" id="h" x1="394.57144" x2="422.72641" y1="509.798" y2="537.953" gradientTransform="translate(-384.57143 -499.798)" gradientUnits="userSpaceOnUse"/>
    <linearGradient xlink:href="#b" id="i" x1="389.57144" x2="427.57143" gradientTransform="rotate(45 819.59527001 -190.31979545)" gradientUnits="userSpaceOnUse"/>
    <linearGradient xlink:href="#a" id="j" x1="389.57144" x2="427.57144" gradientTransform="matrix(.71937 .71937 -.71937 .71937 106.88713 -646.71743)" gradientUnits="userSpaceOnUse"/>
    <linearGradient xlink:href="#c" id="l" x1="395.90768" x2="425.21268" y1="525.26007" y2="513.94635" gradientTransform="translate(-384.57143 -499.798)" gradientUnits="userSpaceOnUse"/>
    <linearGradient xlink:href="#c" id="g" x1="389.95786" x2="410.33771" gradientTransform="matrix(.91926 -.16589 .15464 .98614 -48.43091 74.962799)" gradientUnits="userSpaceOnUse"/>
    <linearGradient xlink:href="#d" id="m" x1="26.362251" x2="44" y1="44.09144" y2="33.75" gradientUnits="userSpaceOnUse"/>
    <linearGradient xlink:href="#e" id="k" x1="9.420159" x2="22" y1="27.554262" y2="40.1341" gradientUnits="userSpaceOnUse"/>
    <linearGradient xlink:href="#e" id="o" x1="9.42017" x2="18.865866" y1="27.554274" y2="36.999969" gradientTransform="translate(0 .00003)" gradientUnits="userSpaceOnUse"/>
    <linearGradient xlink:href="#f" id="n" x1="388.57144" x2="398.82324" y1="519.85461" y2="528.52087" gradientUnits="userSpaceOnUse"/>
  </defs>
  <g transform="translate(-384.57143 -499.798)">
    <path fill="#f9f9f9" d="M408.57143 516.798c-1.78766 0-3.575513.684887-4.945312 2.054688-2.739592 2.739588-2.739594 7.151036 0 9.890624 2.739588 2.7396 7.151036 2.7396 9.890624 0 2.7396-2.739588 2.7396-7.151036 0-9.890624-1.369799-1.369801-3.157652-2.054688-4.945312-2.054688zm-.001953 3.955078a3.0025518 3.0025518 0 0 1 3.001953 3.003906 3.0025518 3.0025518 0 0 1-3.001953 3.001954 3.0025518 3.0025518 0 0 1-3.003906-3.001954 3.0025518 3.0025518 0 0 1 3.003906-3.003906z" opacity=".4"/>
    <path fill="url(#g)" fill-rule="evenodd" d="M408.57151 503.80016c-9.31497.38154-9.92746 1.45972-11.07492 2.0406-1.53659.77795-3.42678 1.21606-3.22935-.0428-.65383.23925-1.40711 1.15021-.76887 2.28987.63823 1.13965-.63655 2.46768-1.25049 1.74938-1.17498-1.37467-4.05536-.29619-3.63488 1.46262.41402-.41354 2.34149-1.31886 2.07344.70138-.26807 2.02024-.40134 3.56801 1.65274 4.94511 2.05407 1.37711 10.02358-.0162 10.02358-.0162z"/>
    <path fill="url(#h)" d="M24 4C12.971815 4 4.0867844 12.83777 4.0039062 23.845703l1.1230469.023438 4.6835938 12.021484L19.976562 41.8125l11.400391-.707031L39.15625 35.625l3.623047-12.019531-2.121094-8.66211L34.46875 7.3125l-1.5625-1.15625-.265625-.1855469C30.024825 4.7198665 27.103157 4 24 4zm0 5c8.309994 0 15 6.690006 15 15s-6.690006 15-15 15S9 32.309994 9 24 15.690006 9 24 9z" transform="translate(384.57143 499.798)"/>
    <path fill="url(#i)" d="M24 4.9824219c-4.85676 0-9.714047 1.8605312-13.435547 5.5820311-7.4430003 7.443001-7.4430003 19.428093 0 26.871094 7.443001 7.443001 19.428093 7.443001 26.871094 0 7.443001-7.443001 7.443001-19.428093 0-26.871094C33.714047 6.8429531 28.85676 4.9824219 24 4.9824219zM24 18c1.53231 0 3.064141.587579 4.238281 1.761719 2.34828 2.34828 2.34828 6.128282 0 8.476562s-6.128282 2.34828-8.476562 0c-2.34827-2.34828-2.34827-6.128282 0-8.476562C20.935859 18.587579 22.46768 18 24 18z" transform="translate(384.57143 499.798)"/>
    <path fill="url(#j)" d="M24.1875 13a11 11 0 0 0-.779297.027344 11 11 0 0 0-1.089844.132812 11 11 0 0 0-1.074218.240235 11 11 0 0 0-1.042969.347656 11 11 0 0 0-1.003906.447265 11 11 0 0 0-.953125.548829 11 11 0 0 0-.894532.638671 11 11 0 0 0-.826171.726563 11 11 0 0 0-.748047.804687 11 11 0 0 0-.666016.875 11 11 0 0 0-.574219.9375 11 11 0 0 0-.478515.990235A11 11 0 0 0 13.677734 20.75a11 11 0 0 0-.271484 1.064453 11 11 0 0 0-.164062 1.085938A11 11 0 0 0 13.1875 24a11 11 0 0 0 .027344.779297 11 11 0 0 0 .132812 1.089844 11 11 0 0 0 .242188 1.074218 11 11 0 0 0 .345703 1.042969 11 11 0 0 0 .447265 1.003906 11 11 0 0 0 .548829.953125 11 11 0 0 0 .640625.894532 11 11 0 0 0 .724609.826171 11 11 0 0 0 .804687.748047 11 11 0 0 0 .875.666016 11 11 0 0 0 .9375.574219 11 11 0 0 0 .990235.478515 11 11 0 0 0 1.033203.378907 11 11 0 0 0 1.064453.271484 11 11 0 0 0 1.085938.164062A11 11 0 0 0 24.1875 35a11 11 0 0 0 .779297-.027344 11 11 0 0 0 1.089844-.132812 11 11 0 0 0 1.074218-.242188 11 11 0 0 0 1.042969-.345703 11 11 0 0 0 1.003906-.447265 11 11 0 0 0 .953125-.548829 11 11 0 0 0 .894532-.640625 11 11 0 0 0 .826171-.724609 11 11 0 0 0 .748047-.804687 11 11 0 0 0 .666016-.875 11 11 0 0 0 .574219-.9375 11 11 0 0 0 .478515-.990235A11 11 0 0 0 34.697266 27.25a11 11 0 0 0 .271484-1.064453 11 11 0 0 0 .164062-1.085938A11 11 0 0 0 35.1875 24a11 11 0 0 0-.027344-.779297 11 11 0 0 0-.132812-1.089844 11 11 0 0 0-.242188-1.074218 11 11 0 0 0-.345703-1.042969 11 11 0 0 0-.447265-1.003906 11 11 0 0 0-.548829-.953125 11 11 0 0 0-.638671-.894532 11 11 0 0 0-.726563-.826171 11 11 0 0 0-.804687-.748047 11 11 0 0 0-.875-.666016 11 11 0 0 0-.9375-.574219 11 11 0 0 0-.990235-.478515 11 11 0 0 0-1.033203-.378907 11 11 0 0 0-1.064453-.271484 11 11 0 0 0-1.085938-.164062A11 11 0 0 0 24.1875 13zm-.191406 4.998047c1.533 0 3.067537.585105 4.242187 1.759765 2.34932 2.349321 2.34932 6.135055 0 8.484376-2.34932 2.349309-6.133112 2.349309-8.482422 0-2.34932-2.349321-2.34932-6.135055 0-8.484376 1.17465-1.17466 2.707235-1.759765 4.240235-1.759765z" transform="translate(384.57143 499.798)"/>
    <path fill="url(#k)" fill-rule="evenodd" d="M17.625 22.875 4.0644531 25.542969C4.8482746 35.895493 13.440044 44 24 44c4.192726 0 8.073387-1.280515 11.28125-3.46875L24.701172 29.951172A6 6 0 0 1 24 30a6 6 0 0 1-6-6 6 6 0 0 1 .044922-.705078L17.625 22.875z" opacity=".4" transform="translate(384.57143 499.798)"/>
    <path fill="url(#l)" fill-rule="evenodd" d="M32.466797 5.8867188c.626129.5750633 1.43753 1.4044894 1.939453 2.3007812.875 1.5625.75 4.28125-1.9375 4.78125-2.68755.5-2.79025-.41542-2.78125-1.5-1.42868.19667-2.06762 3.36355.4375 4.46875 2.125.9375 2.90625.5625 6.90625.3125S41.5 20.875 39.625 21.625s-2.59096-.58688-2.46875-1.3125c-1.50279.58688-1.68625 2.22422-.9375 3 5.84685 6.05797 3.04265 10.739 1.4375 11.21875-1.98903.59449-3.39124-.58395-2.375-2.15625.82813-1.28125.113412-3.394258-.892578-4.142578-1.00599-.74834-2.959502-.569422-3.794922-.013672 1.20417.45526 2.96875 1.15625 2.5 2.71875-.36198 1.2066-1.54792 1.9665-3.03125 1.9375-3.37921-.06618-2.30916-3.11899-1.84375-3.46875-1.8158-.22476-3.02875 3.08852-1.84375 4.21875 1.16611 1.11222 2.80505 1.73267 1.8125 3.4375-1.04107 1.78818-2.5 2.75-5 2.25s-3.875-2.09375-3.5625-3.5625 1.0424-1.6648 2.3125-1.6875c-.7924-1.67893-4.6875-1.6875-4.625 1.21875.03229 1.50128-2.48101 1.74841-3.53125.0625-1.1875-1.90625-.18328-2.72171 1.15625-2.40625.08953-2.12204-1.71875-1.09375-2.1875-3.4375s3.4375-4.125 3.4375-4.125l-12.1542969-.242188C4.6174675 35.681006 13.300753 44 24 44c11.07999 0 20-8.92001 20-20 0-8.045707-4.714687-14.9337977-11.533203-18.1132812z" transform="translate(384.57143 499.798)"/>
    <path fill="url(#m)" d="M4.0117188 23.5C4.007647 23.666859 4 23.832126 4 24c0 11.07999 8.92001 20 20 20s20-8.92001 20-20c0-.167874-.0076-.333141-.01172-.5C43.723609 34.346128 34.912116 43 24 43S4.2763907 34.346128 4.0117188 23.5Z" transform="translate(384.57143 499.798)"/>
    <path fill="url(#n)" d="M388.94448 519.85464c-.24091 1.27725-.37305 2.59401-.37305 3.94336 0 1.34935.13214 2.66611.37305 3.94336l11.62695-1.94336c1.09512-.16848 2-.892 2-2s-.90488-1.83152-2-2z" color="#000"/>
    <circle cx="400.57144" cy="523.79797" r="1" fill="#27ae60" color="#000"/>
    <path d="M408.56948 520.75308c-1.65932-.00075-3.00466 1.34458-3.00391 3.0039-.00053.17279.0139.34531.043.51563.23662-1.45172 1.49006-2.5183 2.96094-2.51953 1.46015-.00039 2.70889 1.04971 2.95898 2.48828.0274-.16003.0418-.32202.043-.48438.00074-1.65856-1.34339-3.00357-3.00195-3.0039z" opacity=".1"/>
    <path fill="url(#o)" fill-rule="evenodd" d="M18.041016 23.291016c-.20959 1.760893.358649 3.594976 1.714843 4.951172 1.356306 1.356305 3.190689 1.924585 4.951172 1.714843l-.005859-.005859c-.23257.0299-6.68505-6.42231-6.65625-6.65625l-.003906-.003906z" opacity=".2" transform="translate(384.57143 499.798)"/>
    <path fill="#95a5a6" d="M412.57143 523.798c0 1.02172-.39109 2.04344-1.17383 2.82617-.78273.78274-1.80445 1.17383-2.82617 1.17383v1c1.27739 0 2.55478-.48837 3.5332-1.4668.97843-.97842 1.4668-2.25581 1.4668-3.5332h-1z"/>
  </g>
</svg>