<?xml version="1.0" encoding="UTF-8" standalone="no"?>
<!-- Created with Inkscape (http://www.inkscape.org/) -->

<svg
   width="292.41061mm"
   height="261.27411mm"
   viewBox="0 0 292.41061 261.27411"
   version="1.1"
   id="svg1"
   xmlns="http://www.w3.org/2000/svg"
   xmlns:svg="http://www.w3.org/2000/svg">
  <defs
     id="defs1" />
  <g
     id="layer1"
     transform="translate(532.09301,-1471.383)">
    <g
       id="g35"
       transform="translate(-4682.0825,-11.871222)">
      <g
         id="g30">
        <path
           id="path27"
           style="display:inline;fill:#f46b25;fill-opacity:1;stroke-width:0;stroke-linecap:round;stroke-linejoin:round;paint-order:stroke markers fill"
           d="m 4170.5288,1524.7278 c -7.9506,0 -14.746,6.8452 -15.7851,13.6668 -1.9514,12.811 -4.7542,70.2481 -4.7542,109.0027 0,38.7547 2.478,76.5006 4.7537,85.9565 1.6004,6.6501 4.8726,11.1745 11.1745,11.1745 h 130.2768 130.2773 c 6.3019,0 9.5742,-4.5244 11.1746,-11.1745 2.2757,-9.4559 4.7537,-47.2018 4.7537,-85.9565 0,-38.7546 -2.8029,-96.1917 -4.7543,-109.0027 -1.0391,-6.8216 -7.8344,-13.6668 -15.785,-13.6668 h -125.6663 z m 44.9818,47.0291 80.6855,80.6876 80.686,-80.6876 v 104.4402 h 37.1176 v 25.2997 h -64.041 v -65.7185 l -53.7637,53.7642 -53.7626,-53.7642 v 65.7185 h -64.0638 v -25.3055 h 37.142 z" />
        <path
           id="path28"
           style="display:inline;fill:#d15513;fill-opacity:1;stroke-width:0;stroke-linecap:round;stroke-linejoin:round;paint-order:stroke markers fill"
           d="m 4151.7708,1705.5517 c 0.9673,13.6987 1.8509,23.1416 2.9725,27.8019 1.6004,6.6501 4.8726,11.1746 11.1745,11.1746 h 130.2768 130.2773 c 6.3019,0 9.5741,-4.5245 11.1745,-11.1746 1.1216,-4.6603 2.0051,-14.1032 2.9724,-27.8019 -7.0449,7.2002 -18.2291,12.189 -50.2527,12.189 h -94.1715 -94.171 c -32.0236,0 -43.2079,-4.9888 -50.2528,-12.189 z" />
        <path
           id="path29"
           style="display:inline;fill:#f46b25;fill-opacity:1;stroke-width:0;stroke-linecap:round;stroke-linejoin:round;paint-order:stroke markers fill"
           d="m 4173.0966,1542.566 c -6.8001,0 -13.4886,6.0443 -13.4886,12.6736 v 15.5877 c 0,34.5655 18.9347,52.3822 55.9026,60.2645 v -59.3349 l 64.5712,64.5728 h 5e-4 32.228 l 64.5718,-64.5728 v 59.3344 c 36.9659,-7.8827 55.8994,-25.6996 55.8994,-60.264 v -15.5877 c 0,-6.6293 -6.6884,-12.6736 -13.4885,-12.6736 h -123.0985 z" />
        <path
           id="path30"
           style="display:inline;opacity:1;fill:#f79d70;fill-opacity:1;stroke-width:0;stroke-linecap:round;stroke-linejoin:round;paint-order:stroke markers fill"
           d="m 4170.5288,1524.7276 c -7.9506,0 -15.7851,7.49 -15.7851,15.2172 v 30.8658 c 0,38.3272 20.5948,56.8791 60.7669,65.1443 v -5.4973 c -36.964,-7.9063 -55.9026,-25.0667 -55.9026,-59.6305 v -15.5877 c 0,-6.6292 6.688,-12.6736 13.4881,-12.6736 h 123.0989 123.0985 c 6.8001,0 13.488,6.0444 13.488,12.6736 v 15.5877 c 0,34.5628 -18.9374,51.7234 -55.8994,59.63 v 5.4973 c 40.1701,-8.2655 60.7637,-26.8175 60.7637,-65.1438 v -30.8658 c 0,-7.7272 -7.8344,-15.2172 -15.785,-15.2172 H 4296.195 Z" />
      </g>
      <g
         id="g33">
        <path
           id="path31"
           style="display:inline;fill:#ac440f;fill-opacity:1;stroke:none;stroke-width:0;stroke-linecap:round;stroke-linejoin:round;stroke-dasharray:none;stroke-opacity:1;paint-order:stroke markers fill"
           d="m 4296.1946,1483.2541 c -32.8576,0 -45.4949,16.9553 -45.4949,25.0672 0,4.9695 2.4091,6.2022 2.4091,6.2022 v 10.2046 h 9.1984 v -8.8941 c 5.4067,-1.2005 13.6125,-11.5103 33.8874,-11.5103 20.2749,0 28.4811,10.3098 33.8878,11.5103 v 8.8941 h 9.1984 v -10.2046 c 0,0 2.4092,-1.2327 2.4092,-6.2022 0,-8.112 -12.6378,-25.0672 -45.4954,-25.0672 z"
           transform="translate(5.8333335e-5)" />
        <path
           id="path32"
           style="display:inline;fill:#f46b25;fill-opacity:1;stroke:none;stroke-width:0;stroke-linecap:round;stroke-linejoin:round;stroke-dasharray:none;stroke-opacity:1;paint-order:stroke markers fill"
           d="m 4296.1946,1483.2541 c -32.7115,0 -45.4949,16.9553 -45.4949,25.0672 0,3.654 2.2788,4.8684 3.5052,4.8684 3.2159,0 7.1694,-2.6703 10.4412,-4.7691 3.2718,-2.0988 15.0886,-11.4778 31.5485,-11.4778 16.4599,0 28.2771,9.379 31.5489,11.4778 3.2718,2.0988 7.2254,4.7691 10.4413,4.7691 1.2264,0 3.5052,-1.2144 3.5052,-4.8684 0,-8.112 -12.7839,-25.0672 -45.4954,-25.0672 z" />
        <path
           style="display:inline;fill:#f79d70;fill-opacity:1;stroke:none;stroke-width:0;stroke-linecap:round;stroke-linejoin:round;stroke-dasharray:none;stroke-opacity:1;paint-order:stroke markers fill"
           d="m 4279.6918,1491.7351 c -1.4769,-2.5579 -10.2803,-1.1025 -16.2942,3.1987 -6.0138,4.3012 -10.2908,8.7639 -10.0504,11.7113 0.1801,2.2083 1.0295,2.7696 2.3585,2.7696 2.1693,0 7.1801,-5.021 11.6292,-7.7819 4.4491,-2.7609 6.1994,-2.8313 8.7929,-4.3287 2.5936,-1.4974 5.0408,-3.011 3.564,-5.569 z"
           id="path33" />
      </g>
      <path
         id="path34"
         style="display:inline;opacity:1;fill:#ac440f;fill-opacity:1;stroke-width:0;stroke-linecap:round;stroke-linejoin:round;paint-order:stroke markers fill"
         d="m 4154.7437,1570.8106 v 10.6035 c 1e-4,38.3272 20.5948,56.8791 60.7669,65.1443 v -10.6035 c -40.1721,-8.2652 -60.7668,-26.8171 -60.7669,-65.1443 z m 282.9021,0 c 0,38.3263 -20.5936,56.8782 -60.7637,65.1438 v 10.6035 c 40.1701,-8.2656 60.7637,-26.8176 60.7637,-65.1438 z" />
      <path
         id="path35"
         style="baseline-shift:baseline;display:inline;overflow:visible;opacity:1;vector-effect:none;fill:#f79d70;fill-opacity:1;stroke-linecap:round;stroke-linejoin:round;paint-order:stroke markers fill;enable-background:accumulate;stop-color:#000000;stop-opacity:1"
         d="m 4215.5111,1566.2625 a 5.50055,5.50055 0 0 0 -2.1048,0.4191 v -0.01 a 5.50055,5.50055 0 0 0 -3.3967,5.0797 v 98.9418 h -31.6404 a 5.50055,5.50055 0 0 0 -5.5,5.4999 v 25.3044 a 5.50055,5.50055 0 0 0 5.5,5.5 h 64.0622 a 5.50055,5.50055 0 0 0 5.5004,-5.5 v -52.4412 l 44.3746,44.3771 a 5.50055,5.50055 0 0 0 7.7778,0 l 44.3746,-44.3771 v 52.4412 a 5.50055,5.50055 0 0 0 5.5004,5.5 h 64.0411 a 5.50055,5.50055 0 0 0 5.4999,-5.5 v -25.2987 a 5.50055,5.50055 0 0 0 -5.4999,-5.4999 h -31.6178 v -98.9413 a 5.50055,5.50055 0 0 0 -9.3901,-3.8891 l -76.7974,76.7968 -76.7948,-76.7968 a 5.50055,5.50055 0 0 0 -3.8891,-1.6103 z m -5e-4,5.4943 80.6855,80.6876 80.686,-80.6876 v 104.4401 h 37.1176 v 25.2998 l -64.041,10e-4 v -65.7185 l -53.7637,53.7647 -53.7626,-53.7647 v 65.7185 h -64.0638 v -25.3054 h 37.142 z"
         transform="translate(5.8333335e-5)" />
    </g>
  </g>
</svg>
