<?xml version="1.0" encoding="UTF-8"?>
<svg height="128px" viewBox="0 0 128 128" width="128px" xmlns="http://www.w3.org/2000/svg" xmlns:xlink="http://www.w3.org/1999/xlink">
    <linearGradient id="a" gradientUnits="userSpaceOnUse" x1="6.89000162002" x2="121.10940372121" y1="63.99979870403" y2="63.99979870403">
        <stop offset="0" stop-color="#235085"/>
        <stop offset="0.19973" stop-color="#235085"/>
        <stop offset="0.398849" stop-color="#7699cc"/>
        <stop offset="0.604055" stop-color="#235085"/>
        <stop offset="1" stop-color="#235085"/>
    </linearGradient>
    <linearGradient id="b" gradientUnits="userSpaceOnUse" x1="61.029373" x2="66.970123" y1="288.678101" y2="175.321854">
        <stop offset="0" stop-color="#92b6e4"/>
        <stop offset="0.337565" stop-color="#ffffff" stop-opacity="0"/>
    </linearGradient>
    <linearGradient id="c" gradientUnits="userSpaceOnUse" x1="63.999733" x2="63.999733" y1="3.244064" y2="116.75592">
        <stop offset="0.00153092" stop-color="#2ca9bd"/>
        <stop offset="1" stop-color="#2f6fba"/>
    </linearGradient>
    <radialGradient id="d" cx="61.874729" cy="57.25" gradientUnits="userSpaceOnUse" r="6.301872">
        <stop offset="0.138546" stop-color="#e9f18c"/>
        <stop offset="1" stop-color="#cc970a"/>
    </radialGradient>
    <linearGradient id="e" gradientUnits="userSpaceOnUse" x1="19.374733" x2="108.624733" y1="232" y2="232">
        <stop offset="0" stop-color="#ffffff"/>
        <stop offset="0.5" stop-color="#f6f5f4"/>
        <stop offset="1" stop-color="#ffffff"/>
    </linearGradient>
    <path d="m 121.109375 64 c 0 31.539062 -25.570313 57.109375 -57.109375 57.109375 c -31.542969 0 -57.109375 -25.570313 -57.109375 -57.109375 s 25.566406 -57.109375 57.109375 -57.109375 c 31.539062 0 57.109375 25.570313 57.109375 57.109375 z m 0 0" fill="url(#a)"/>
    <path d="m 120 232 c 0 30.929688 -25.074219 56 -56 56 c -30.929688 0 -56 -25.070312 -56 -56 s 25.070312 -56 56 -56 c 30.925781 0 56 25.070312 56 56 z m 0 0" fill="none" stroke="url(#b)" stroke-linejoin="bevel" stroke-miterlimit="8" stroke-width="2.5" transform="matrix(1 0 0 1 0 -172)"/>
    <path d="m 120 60 c 0 30.929688 -25.074219 56 -56 56 c -30.929688 0 -56 -25.070312 -56 -56 s 25.070312 -56 56 -56 c 30.925781 0 56 25.070312 56 56 z m 0 0" fill="url(#c)"/>
    <path d="m 70.300781 60 c 0 3.480469 -2.820312 6.300781 -6.300781 6.300781 s -6.300781 -2.820312 -6.300781 -6.300781 s 2.820312 -6.300781 6.300781 -6.300781 s 6.300781 2.820312 6.300781 6.300781 z m 0 0" fill="url(#d)"/>
    <path d="m 78 232 c 0 24.09375 -6.269531 43.625 -14 43.625 s -14 -19.53125 -14 -43.625 s 6.269531 -43.625 14 -43.625 s 14 19.53125 14 43.625 z m -21 -12.125 c 20.863281 -12.046875 40.914062 -16.382812 44.78125 -9.6875 c 3.863281 6.695312 -9.914062 21.890625 -30.78125 33.9375 s -40.914062 16.382812 -44.78125 9.6875 s 9.914062 -21.890625 30.78125 -33.9375 z m 0 24.25 c -20.867188 -12.046875 -34.648438 -27.242188 -30.78125 -33.9375 s 23.914062 -2.359375 44.78125 9.6875 s 34.644531 27.242188 30.78125 33.9375 c -3.867188 6.695312 -23.917969 2.359375 -44.78125 -9.6875 z m 0 -24.25 c 20.863281 -12.046875 40.914062 -16.382812 44.78125 -9.6875 c 3.863281 6.695312 -9.914062 21.890625 -30.78125 33.9375 s -40.914062 16.382812 -44.78125 9.6875 s 9.914062 -21.890625 30.78125 -33.9375 z m 0 24.25 c -20.867188 -12.046875 -34.648438 -27.242188 -30.78125 -33.9375 s 23.914062 -2.359375 44.78125 9.6875 s 34.644531 27.242188 30.78125 33.9375 c -3.867188 6.695312 -23.917969 2.359375 -44.78125 -9.6875 z m 21 -12.125 c 0 24.09375 -6.269531 43.625 -14 43.625 s -14 -19.53125 -14 -43.625 s 6.269531 -43.625 14 -43.625 s 14 19.53125 14 43.625 z m -21 12.125 c -20.867188 -12.046875 -34.648438 -27.242188 -30.78125 -33.9375 s 23.914062 -2.359375 44.78125 9.6875 s 34.644531 27.242188 30.78125 33.9375 c -3.867188 6.695312 -23.917969 2.359375 -44.78125 -9.6875 z m 21 -12.125 c 0 24.09375 -6.269531 43.625 -14 43.625 s -14 -19.53125 -14 -43.625 s 6.269531 -43.625 14 -43.625 s 14 19.53125 14 43.625 z m -21 -12.125 c 20.863281 -12.046875 40.914062 -16.382812 44.78125 -9.6875 c 3.863281 6.695312 -9.914062 21.890625 -30.78125 33.9375 s -40.914062 16.382812 -44.78125 9.6875 s 9.914062 -21.890625 30.78125 -33.9375 z m 0 0" fill="none" stroke="url(#e)" stroke-linejoin="bevel" stroke-miterlimit="8" stroke-width="2" transform="matrix(1 0 0 1 0 -172)"/>
    <path d="m 70.199219 16.417969 c -1.726563 0.023437 -3.222657 0.996093 -3.988281 2.421875 c -0.347657 0.648437 -0.546876 1.386718 -0.546876 2.175781 c 0 2.53125 2.046876 4.589844 4.613282 4.601563 c 0.3125 0.007812 0.613281 -0.035157 0.914062 -0.089844 c 1.589844 -0.304688 2.976563 -1.417969 3.523438 -3.058594 c 0.800781 -2.414062 -0.507813 -5.019531 -2.917969 -5.820312 c -0.5 -0.164063 -1.007813 -0.238282 -1.503906 -0.230469 z m -36.960938 13.996093 c -1.027343 0.039063 -2.054687 0.421876 -2.882812 1.160157 c -0.394531 0.347656 -0.710938 0.75 -1 1.261719 c -0.84375 1.507812 -0.746094 3.289062 0.101562 4.667968 c 0.390625 0.625 0.933594 1.167969 1.617188 1.5625 c 2.191406 1.265625 4.992187 0.523438 6.289062 -1.691406 c 0.160157 -0.269531 0.277344 -0.550781 0.378907 -0.84375 c 0.53125 -1.523438 0.257812 -3.28125 -0.890626 -4.574219 c -0.949218 -1.070312 -2.285156 -1.589843 -3.613281 -1.542969 z m 67.511719 10.921876 c -0.734375 0.023437 -1.472656 0.222656 -2.15625 0.613281 c -2.191406 1.269531 -2.949219 4.066406 -1.679688 6.296875 c 0.152344 0.273437 0.339844 0.515625 0.539063 0.746094 c 1.054687 1.226562 2.714844 1.867187 4.410156 1.519531 c 2.488281 -0.511719 4.089844 -2.945313 3.578125 -5.4375 c -0.105468 -0.511719 -0.296875 -0.988281 -0.597656 -1.496094 c -0.882812 -1.484375 -2.472656 -2.289063 -4.09375 -2.242187 z m -73.433594 28.066406 c -0.179687 -0.011719 -0.363281 -0.011719 -0.546875 0.003906 c -0.207031 0.011719 -0.417969 0.039062 -0.628906 0.082031 c -2.492187 0.511719 -4.09375 2.945313 -3.582031 5.4375 c 0.105468 0.511719 0.296875 0.988281 0.597656 1.496094 c 0.882812 1.484375 2.472656 2.289063 4.09375 2.242187 c 0.734375 -0.023437 1.472656 -0.222656 2.15625 -0.613281 c 2.191406 -1.269531 2.949219 -4.066406 1.679688 -6.296875 c -0.152344 -0.273437 -0.339844 -0.515625 -0.539063 -0.746094 c -0.808594 -0.9375 -1.96875 -1.535156 -3.230469 -1.605468 z m 67.441406 10.917968 c -1.625 -0.046874 -3.222656 0.773438 -4.121093 2.304688 c -0.160157 0.269531 -0.277344 0.550781 -0.378907 0.84375 c -0.53125 1.523438 -0.257812 3.28125 0.890626 4.574219 c 1.6875 1.898437 4.597656 2.070312 6.496093 0.382812 c 0.394531 -0.347656 0.710938 -0.75 1 -1.261719 c 0.84375 -1.507812 0.746094 -3.289062 -0.105469 -4.667968 c -0.386718 -0.625 -0.929687 -1.167969 -1.613281 -1.5625 c -0.683593 -0.394532 -1.429687 -0.59375 -2.167969 -0.613282 z m -37.035156 14.0625 c -0.3125 -0.007812 -0.617187 0.035157 -0.917968 0.089844 c -1.585938 0.304688 -2.972657 1.417969 -3.519532 3.058594 c -0.800781 2.414062 0.507813 5.019531 2.917969 5.820312 c 0.5 0.164063 1.007813 0.238282 1.59375 0.230469 c 1.730469 -0.023437 3.226563 -0.996093 3.992187 -2.421875 c 0.347657 -0.648437 0.542969 -1.386718 0.542969 -2.175781 c 0 -2.53125 -2.042969 -4.589844 -4.570312 -4.605469 z m 0 0" fill="#ffffff"/>
</svg>
