<?xml version="1.0" encoding="UTF-8" standalone="no"?>
<!-- Generator: Adobe Illustrator 16.0.0, SVG Export Plug-In . SVG Version: 6.00 Build 0)  -->

<svg
   xmlns:osb="http://www.openswatchbook.org/uri/2009/osb"
   xmlns:dc="http://purl.org/dc/elements/1.1/"
   xmlns:cc="http://creativecommons.org/ns#"
   xmlns:rdf="http://www.w3.org/1999/02/22-rdf-syntax-ns#"
   xmlns:svg="http://www.w3.org/2000/svg"
   xmlns="http://www.w3.org/2000/svg"
   xmlns:sodipodi="http://sodipodi.sourceforge.net/DTD/sodipodi-0.dtd"
   xmlns:inkscape="http://www.inkscape.org/namespaces/inkscape"
   version="1.1"
   x="0px"
   y="0px"
   width="512px"
   height="512px"
   viewBox="0 0 512 512"
   style="enable-background:new 0 0 512 512;"
   xml:space="preserve"
   id="svg2"
   inkscape:version="0.91 r"
   sodipodi:docname="launcher_openScale.svg"><metadata
     id="metadata94"><rdf:RDF><cc:Work
         rdf:about=""><dc:format>image/svg+xml</dc:format><dc:type
           rdf:resource="http://purl.org/dc/dcmitype/StillImage" /></cc:Work></rdf:RDF></metadata><defs
     id="defs92"><linearGradient
       id="linearGradient5728"
       osb:paint="solid"><stop
         style="stop-color:#ffffff;stop-opacity:1;"
         offset="0"
         id="stop5730" /></linearGradient><linearGradient
       id="linearGradient4238"
       osb:paint="gradient"><stop
         style="stop-color:#000000;stop-opacity:1;"
         offset="0"
         id="stop4240" /><stop
         style="stop-color:#000000;stop-opacity:0;"
         offset="1"
         id="stop4242" /></linearGradient></defs><sodipodi:namedview
     pagecolor="#ffffff"
     bordercolor="#666666"
     borderopacity="1"
     objecttolerance="10"
     gridtolerance="10"
     guidetolerance="10"
     inkscape:pageopacity="0"
     inkscape:pageshadow="2"
     inkscape:window-width="1920"
     inkscape:window-height="1148"
     id="namedview90"
     showgrid="false"
     inkscape:zoom="1.3037281"
     inkscape:cx="213.5495"
     inkscape:cy="359.07295"
     inkscape:window-x="0"
     inkscape:window-y="0"
     inkscape:window-maximized="1"
     inkscape:current-layer="layer2" /><g
     id="Guides_For_Artboard" /><g
     id="_x30_" /><g
     id="_x31_" /><g
     id="_x32_" /><g
     id="_x33_" /><g
     id="_x34_" /><g
     id="_x35_" /><g
     id="_x36_" /><g
     id="_x37_" /><g
     id="_x38_" /><g
     id="_x39_" /><g
     id="_x31_0" /><g
     id="_x31_1" /><g
     id="_x31_2" /><g
     id="_x31_3" /><g
     id="_x31_4" /><g
     id="_x31_5" /><g
     id="_x31_6" /><g
     id="_x31_7" /><g
     id="_x31_8"
     style="stroke:#000000;stroke-opacity:1" /><g
     id="_x31_9" /><g
     id="_x32_0" /><g
     id="_x32_1" /><g
     id="_x32_2" /><g
     id="_x32_3" /><g
     id="_x32_4" /><g
     id="_x32_5" /><g
     id="_x32_6" /><g
     id="_x32_7" /><g
     id="_x32_8" /><g
     id="_x32_9" /><g
     id="_x33_0" /><g
     id="_x33_1" /><g
     id="_x33_2" /><g
     id="_x33_3" /><g
     id="_x33_4" /><g
     id="_x33_5" /><g
     id="_x33_6" /><g
     id="_x33_7" /><g
     id="_x33_8" /><g
     id="_x33_9" /><g
     id="_x34_0" /><g
     id="_x34_1" /><g
     id="_x34_2" /><g
     id="_x34_3" /><g
     id="_x34_4" /><g
     id="_x34_5" /><g
     id="_x34_6" /><g
     id="_x34_7" /><g
     id="_x34_8" /><g
     id="_x34_9" /><g
     id="_x35_0" /><g
     id="_x35_1" /><g
     id="_x35_2" /><g
     id="_x35_3" /><g
     id="_x35_4" /><g
     id="_x35_5" /><g
     id="_x35_6" /><g
     id="_x35_7" /><g
     id="_x35_8" /><g
     id="_x35_9" /><g
     id="_x36_0" /><g
     id="_x36_1" /><g
     id="_x36_2" /><g
     id="_x36_3" /><g
     id="_x36_4" /><g
     id="_x36_5" /><g
     id="_x36_6" /><g
     id="_x36_7" /><g
     id="_x36_8" /><g
     id="_x36_9" /><g
     id="_x37_0" /><g
     inkscape:groupmode="layer"
     id="layer1"
     inkscape:label="Layer 1"><rect
       style="enable-background:new 0 0 512 512;fill:#ffffff;fill-opacity:1;stroke:#000000;stroke-width:0;stroke-linejoin:miter;stroke-miterlimit:0;stroke-dasharray:none;stroke-opacity:1"
       id="rect4225"
       width="292.23886"
       height="157.24138"
       x="115.82169"
       y="70.957115" /></g><g
     inkscape:groupmode="layer"
     id="layer2"
     inkscape:label="Layer 2"><path
       d="M468.197,110.094c-4.646-35.307-25.406-56.746-56.746-56.746H255.999H100.548c-31.338,0-52.098,21.439-56.745,56.746    S14.437,399.906,14.437,399.906c0,31.341,25.407,56.746,56.746,56.746h184.817h184.818c31.338,0,56.746-25.405,56.746-56.746    C497.563,399.906,472.843,145.4,468.197,110.094z M257.387,196.043c0.628-0.806,1.199-1.658,1.687-2.563    c10.837-13.798,38.332-49.659,34.338-53.633c-3.145-3.119-27.172,9.343-44.396,18.913c-6.451,3.584-11.954,6.765-15.038,8.568    c-0.806,0.397-1.557,0.858-2.298,1.356c-0.154,0.09-0.387,0.229-0.387,0.229l0.014,0.015c-5.377,3.784-8.701,10.186-8.089,17.217    c0.323,3.738,1.718,7.119,3.836,9.898h-87.465c-2.041,0-3.695-1.654-3.695-3.695c0-61.441,49.985-111.427,111.426-111.427    c3.157,0,6.408,0.143,9.663,0.422c27.688,2.379,53.352,14.982,72.263,35.485c19.024,20.624,29.5,47.444,29.5,75.52    c0,2.041-1.655,3.695-3.695,3.695H257.387z"
       id="path36"
       style="enable-background:new 0 0 512 512;stroke:#000000;stroke-opacity:1;fill:#33b6ea;fill-opacity:1;stroke-width:3;stroke-miterlimit:4;stroke-dasharray:none;stroke-linejoin:miter" /><g
       id="g24"
       style="enable-background:new 0 0 512 512;stroke:#000000;stroke-opacity:1;fill:#33b6ea;fill-opacity:1;stroke-width:4.9;stroke-miterlimit:4;stroke-dasharray:none;stroke-linejoin:miter"><path
         d="M247.32,98.087c-1.651,0-2.991,1.339-2.991,2.99v5.149c0,1.651,1.34,2.99,2.991,2.99s2.991-1.339,2.991-2.99v-5.149    C250.311,99.426,248.971,98.087,247.32,98.087z"
         id="path26"
         style="fill:#000000;fill-opacity:1;stroke:#000000;stroke-opacity:1;stroke-width:4.9;stroke-miterlimit:4;stroke-dasharray:none;stroke-linejoin:miter" /><path
         d="M175.479,174.161h-6.813c-1.37,0-2.48,1.11-2.48,2.481c0,1.37,1.11,2.48,2.48,2.48h6.813c1.371,0,2.481-1.11,2.481-2.48    C177.959,175.271,176.849,174.161,175.479,174.161z"
         id="path28"
         style="fill:#000000;fill-opacity:1;stroke:#000000;stroke-opacity:1;stroke-width:4.9;stroke-miterlimit:4;stroke-dasharray:none;stroke-linejoin:miter" /><path
         d="M325.974,173.933h-7.09c-1.496,0-2.709,1.213-2.709,2.71c0,1.496,1.213,2.709,2.709,2.709h7.09    c1.497,0,2.71-1.213,2.71-2.709C328.684,175.146,327.471,173.933,325.974,173.933z"
         id="path30"
         style="fill:#000000;fill-opacity:1;stroke:#000000;stroke-opacity:1;stroke-width:4.9;stroke-miterlimit:4;stroke-dasharray:none;stroke-linejoin:miter" /><path
         d="M193.818,122c-1.169-1.168-3.062-1.168-4.23,0c-1.168,1.168-1.168,3.062,0,4.23l3.796,3.796    c0.584,0.584,1.35,0.876,2.115,0.876c0.766,0,1.531-0.292,2.115-0.876c1.167-1.168,1.167-3.062,0-4.229L193.818,122z"
         id="path32"
         style="fill:#000000;fill-opacity:1;stroke:#000000;stroke-opacity:1;stroke-width:4.9;stroke-miterlimit:4;stroke-dasharray:none;stroke-linejoin:miter" /><path
         d="M300.819,122l-4.449,4.45c-1.169,1.168-1.169,3.063,0,4.23c0.583,0.583,1.35,0.876,2.114,0.876    c0.766,0,1.53-0.293,2.116-0.876l4.449-4.45c1.168-1.169,1.168-3.063,0-4.23C303.881,120.832,301.988,120.832,300.819,122z"
         id="path34"
         style="fill:#000000;fill-opacity:1;stroke:#000000;stroke-opacity:1;stroke-width:4.9;stroke-miterlimit:4;stroke-dasharray:none;stroke-linejoin:miter" /></g></g></svg>