<svg xmlns="http://www.w3.org/2000/svg" viewBox="0 0 24 24"><g stroke-width="0" transform="scale(.06)"><path fill="#fcaa0c" d="M400 0H0c72.86 0 141.16 19.49 200 53.526C258.836 19.49 327.14 0 400 0z"/><path fill="#90be03" d="M400 400V0c0 72.86-19.49 141.16-53.526 200C380.51 258.836 400 327.14 400 400z"/><path fill="#fed90d" d="M200 53.526C141.164 19.49 72.86 0 0 0v400C0 251.95 80.443 122.69 200 53.53z"/><path fill="#98e600" d="M0 400h400c0-72.86-19.49-141.16-53.526-200-69.163 119.56-198.42 200-346.47 200z"/><path fill="#729700" d="M261.25 97.124a401.113 401.113 0 0 0-61.251-43.598c-119.56 69.163-200 198.42-200 346.47 148.05 0 277.31-80.443 346.47-200a401.113 401.113 0 0 0-43.598-61.25c-20.489-5.015-36.61-21.137-41.625-41.626z"/><path fill="#6f8602" d="M400 0c-72.86 0-141.16 19.49-200 53.526 60.721 35.126 111.35 85.753 146.47 146.47 34.036-58.836 53.526-127.14 53.526-200z"/><circle cx="200" cy="200" r="78.704" fill="#58c300"/><circle cx="200" cy="200" r="52.073" fill="#efdb00"/><circle cx="78.515" cy="321.61" r="56.844" fill="#58c300"/><circle cx="78.515" cy="321.61" r="30.184" fill="#efdb00"/><path fill="#58b900" d="M373.24 83.575c0-31.377-25.436-56.812-56.812-56.812-31.377 0-56.812 25.436-56.812 56.812 0 4.67.576 9.206 1.639 13.549a402.495 402.495 0 0 1 41.625 41.625 56.91 56.91 0 0 0 13.549 1.639c31.377 0 56.812-25.436 56.812-56.812z"/><path fill="#58c300" d="M261.25 97.124c5.015 20.489 21.136 36.61 41.625 41.625a402.495 402.495 0 0 0-41.625-41.625z"/><circle cx="316.42" cy="83.575" r="30.125" fill="#cfcd00"/></g></svg>