<?xml version="1.0" encoding="UTF-8" standalone="no"?>
<!-- Created with Inkscape (http://www.inkscape.org/) -->

<svg
   version="1.1"
   id="svg1"
   width="128.5"
   height="131.33333"
   viewBox="0 0 128.5 131.33333"
   sodipodi:docname="fedora-logo-sprite.svg"
   inkscape:version="1.4 (e7c3feb100, 2024-10-09)"
   inkscape:export-filename="system-logo-white.png"
   inkscape:export-xdpi="83.673149"
   inkscape:export-ydpi="83.673149"
   xmlns:inkscape="http://www.inkscape.org/namespaces/inkscape"
   xmlns:sodipodi="http://sodipodi.sourceforge.net/DTD/sodipodi-0.dtd"
   xmlns:xlink="http://www.w3.org/1999/xlink"
   xmlns="http://www.w3.org/2000/svg"
   xmlns:svg="http://www.w3.org/2000/svg">
  <defs
     id="defs1">
    <filter
       style="color-interpolation-filters:sRGB"
       inkscape:label="Drop Shadow"
       id="filter40"
       x="-0.024489796"
       y="-0.01875"
       width="1.0693878"
       height="1.0609375">
      <feFlood
         result="flood"
         in="SourceGraphic"
         flood-opacity="0.75"
         flood-color="rgb(64,0,128)"
         id="feFlood39" />
      <feGaussianBlur
         result="blur"
         in="SourceGraphic"
         stdDeviation="2.000000"
         id="feGaussianBlur39" />
      <feOffset
         result="offset"
         in="blur"
         dx="4.000000"
         dy="6.000000"
         id="feOffset39" />
      <feComposite
         result="comp1"
         operator="in"
         in="flood"
         in2="offset"
         id="feComposite39" />
      <feComposite
         result="comp2"
         operator="over"
         in="SourceGraphic"
         in2="comp1"
         id="feComposite40" />
    </filter>
    <linearGradient
       inkscape:collect="always"
       xlink:href="#linearGradient10"
       id="linearGradient6"
       x1="367.99997"
       y1="62.010296"
       x2="143.99998"
       y2="449.98965"
       gradientUnits="userSpaceOnUse"
       gradientTransform="matrix(0.28683034,0,0,0.28675399,-9.1785701,-9.1761274)" />
    <linearGradient
       id="linearGradient10"
       x1="119.00664"
       y1="9.9706745"
       x2="9.8707094"
       y2="118.384"
       gradientUnits="userSpaceOnUse"
       gradientTransform="matrix(1.1666666,0,0,1.1666666,-10.666666,-10.666666)"
       spreadMethod="pad">
      <stop
         stop-color="#76C9F6"
         id="stop6"
         offset="0"
         style="stop-color:#3dc7f5;stop-opacity:1;" />
      <stop
         stop-color="#76C9F6"
         id="stop7"
         offset="0.25"
         style="stop-color:#0da6f2;stop-opacity:1;" />
      <stop
         stop-color="#76C9F6"
         id="stop8"
         offset="0.5"
         style="stop-color:#5f82c9;stop-opacity:1;" />
      <stop
         stop-color="#76C9F6"
         id="stop9"
         offset="0.75"
         style="stop-color:#7259a6;stop-opacity:1;" />
      <stop
         offset="1"
         stop-color="#715680"
         id="stop10"
         style="stop-color:#744e74;stop-opacity:1;" />
    </linearGradient>
  </defs>
  <sodipodi:namedview
     id="namedview1"
     pagecolor="#ffffff"
     bordercolor="#000000"
     borderopacity="0.25"
     inkscape:showpageshadow="2"
     inkscape:pageopacity="0.0"
     inkscape:pagecheckerboard="0"
     inkscape:deskcolor="#d1d1d1"
     showgrid="false"
     inkscape:zoom="5.1973246"
     inkscape:cx="38.481337"
     inkscape:cy="75.808234"
     inkscape:window-width="1920"
     inkscape:window-height="1011"
     inkscape:window-x="0"
     inkscape:window-y="0"
     inkscape:window-maximized="1"
     inkscape:current-layer="svg1">
    <inkscape:page
       x="0"
       y="0"
       width="128.5"
       height="131.33333"
       id="page2"
       margin="0"
       bleed="0" />
  </sodipodi:namedview>
  <path
     id="rect32-2"
     style="display:inline;fill:#7a4f7b;fill-opacity:1;stroke-width:0.386667"
     inkscape:label="Circle's drop shadow"
     d="M 2.9333939,62.232656 C 2.9155818,62.879402 1.2496098e-7,64.656178 1.2496098e-7,65.307574 1.2496098e-7,101.88585 28.271719,131.33333 63.389504,131.33333 h 1.720982 c 35.117784,0 63.389504,-29.44748 63.389504,-66.025756 0,-0.651396 -4.65814,-1.018405 -4.67595,-1.66515 -0.9827,36.167001 -24.604964,59.918616 -59.574045,59.918616 -34.969081,0 -60.3338946,-25.161378 -61.3166011,-61.328384 z"
     sodipodi:nodetypes="csssscsc" />
  <rect
     style="fill:url(#linearGradient6);fill-opacity:1;stroke-width:0.324857;stroke-linecap:round;stroke-linejoin:round"
     id="rect4"
     width="128.5"
     height="128.46581"
     x="0"
     y="0"
     ry="64.232903"
     inkscape:label="Background gradient" />
  <g
     id="g10"
     inkscape:label="Padlock group"
     style="filter:url(#filter40)"
     transform="matrix(0.28683033,0,0,0.28675401,-9.1785709,-9.1761288)">
    <path
       d="m 184.50002,383.99994 c -6.73728,0 -12.50712,-2.38932 -17.30912,-7.168 -4.802,-4.77864 -7.19881,-10.51631 -7.19088,-17.21292 V 237.71429 c 0,-6.70501 2.40101,-12.44637 7.203,-17.22505 4.802,-4.77865 10.56768,-7.16426 17.297,-7.15592 h 12.25001 V 188.9524 c 0,-16.86372 5.97379,-31.24014 17.92183,-43.1297 11.9476,-11.89 26.39048,-17.83059 43.32816,-17.82269 16.94556,0 31.39264,5.94478 43.34023,17.83478 11.94808,11.88954 17.9177,26.26222 17.90972,43.11761 v 24.38092 h 12.25001 c 6.73727,0 12.50712,2.38935 17.30912,7.16798 4.802,4.77869 7.19881,10.51635 7.19088,17.21299 v 121.90473 c 0,6.70451 -2.40101,12.44636 -7.20301,17.22503 -4.802,4.77864 -10.56768,7.16378 -17.29699,7.15593 z m 73.5,-60.95235 c 6.73724,0 12.50711,-2.38932 17.30911,-7.168 4.80201,-4.77869 7.19881,-10.51631 7.19086,-17.21297 0,-6.70498 -2.40101,-12.44632 -7.20301,-17.22499 -4.802,-4.77869 -10.56765,-7.1643 -17.29696,-7.15593 -6.73777,0 -12.50715,2.38933 -17.30916,7.16801 -4.802,4.77867 -7.1988,10.5163 -7.19085,17.21291 0,6.70454 2.40101,12.44636 7.20301,17.22505 4.802,4.77867 10.56763,7.1638 17.297,7.15592 z m -36.75,-109.71427 h 73.49995 V 188.9524 c 0,-10.15874 -3.57279,-18.79377 -10.71883,-25.90466 -7.1456,-7.11136 -15.8228,-10.66679 -26.03112,-10.66679 -10.20836,0 -18.88556,3.55543 -26.03117,10.66679 -7.14603,7.11089 -10.71883,15.74592 -10.71883,25.90466 z"
       fill="#f4f5ff"
       id="path2"
       style="display:inline;fill:#e5e5ff;fill-opacity:1;stroke-width:4.65526"
       inkscape:label="Padlock" />
  </g>
</svg>
