<svg xmlns="http://www.w3.org/2000/svg" viewBox="0 0 24 24"><defs><linearGradient id="a" x1="58.666" x2="58.666" y1="117.33" y2="0" gradientUnits="userSpaceOnUse"><stop offset="0" stop-color="#0882C8"/><stop offset="1" stop-color="#26B6DB"/></linearGradient></defs><path fill="url(#a)" d="M117.4 58.7a58.7 58.7 0 0 1-58.7 58.7A58.7 58.7 0 0 1 0 58.7 58.7 58.7 0 0 1 58.7 0a58.7 58.7 0 0 1 58.7 58.7z" transform="scale(.20443)"/><path fill="none" stroke="#fff" stroke-miterlimit="10" stroke-width="1.22658" d="M20.934 11.96A8.934 8.934 0 0 1 12 20.892a8.934 8.934 0 0 1-8.934-8.934A8.934 8.934 0 0 1 12 3.026a8.934 8.934 0 0 1 8.934 8.933z"/><path fill="#fff" d="M19.36 9.772c.96.327 2.003-.184 2.33-1.145s-.184-2.003-1.145-2.33-2.003.183-2.33 1.144.184 2.004 1.145 2.33z"/><path fill="none" stroke="#fff" stroke-miterlimit="10" stroke-width="1.22658" d="m19.952 8.055-6.153 5.11"/><path fill="#fff" d="M15.864 18.603a1.864 1.864 0 0 0 1.676 2.004 1.852 1.852 0 0 0 2.004-1.677 1.864 1.864 0 0 0-1.677-2.003c-1.022-.082-1.921.654-2.003 1.676z"/><path fill="none" stroke="#fff" stroke-miterlimit="10" stroke-width="1.22658" d="M17.683 18.767 13.8 13.165"/><path fill="#fff" d="M12.266 14.167c.552.859 1.697 1.104 2.535.552.858-.552 1.104-1.697.552-2.535-.552-.859-1.697-1.104-2.535-.552-.859.532-1.104 1.676-.552 2.535zM4.334 12.552c-.88-.511-2.003-.225-2.515.634-.51.879-.224 2.003.634 2.514.88.511 2.004.225 2.515-.634s.225-1.982-.634-2.514z"/><path fill="none" stroke="#fff" stroke-miterlimit="10" stroke-width="1.22658" d="m3.394 14.126 10.405-.96"/></svg>