<svg xmlns="http://www.w3.org/2000/svg" width="93" height="94" fill="none" aria-label="TutaMailApp"><g fill="#fff" filter="url(#a)"><path d="M5.75 32.212c0-9.742 0-14.612 1.835-18.359a18 18 0 0 1 8.246-8.246c3.747-1.835 8.618-1.835 18.359-1.835h24.62c9.742 0 14.612 0 18.359 1.835a18 18 0 0 1 8.246 8.246c1.835 3.747 1.835 8.618 1.835 18.359v24.62c0 9.741 0 14.612-1.835 18.359a18 18 0 0 1-8.246 8.245c-3.747 1.836-8.617 1.836-18.359 1.836H34.19c-9.741 0-14.612 0-18.359-1.836a18 18 0 0 1-8.245-8.245C5.75 71.444 5.75 66.573 5.75 56.832z"/><path d="M5.75 32.212c0-9.742 0-14.612 1.835-18.359a18 18 0 0 1 8.246-8.246c3.747-1.835 8.618-1.835 18.359-1.835h24.62c9.742 0 14.612 0 18.359 1.835a18 18 0 0 1 8.246 8.246c1.835 3.747 1.835 8.618 1.835 18.359v24.62c0 9.741 0 14.612-1.835 18.359a18 18 0 0 1-8.246 8.245c-3.747 1.836-8.617 1.836-18.359 1.836H34.19c-9.741 0-14.612 0-18.359-1.836a18 18 0 0 1-8.245-8.245C5.75 71.444 5.75 66.573 5.75 56.832z"/></g><path fill="#850122" d="M73.236 32.99h-7.208a.34.34 0 0 0-.239.097L47.872 50.452a.346.346 0 0 1-.553-.108l-5.214-17.159a.33.33 0 0 0-.314-.206h-7.382a.34.34 0 0 0-.325.239l-11.61 37.938a.337.337 0 0 0 .326.433h7.566a.34.34 0 0 0 .325-.238l7.35-23.999a.34.34 0 0 1 .639-.032l5.019 11.49a.346.346 0 0 0 .314.205h4.086a.34.34 0 0 0 .239-.097l12.107-11.88c.25-.25.662.01.564.336l-7.284 23.792a.337.337 0 0 0 .325.434h7.577a.34.34 0 0 0 .325-.238l11.61-37.939a.337.337 0 0 0-.326-.433"/><path fill="#F22" d="m28.697 30.518-8.759-8.715c-.108-.097-.238-.086-.249-.086a.315.315 0 0 0-.314.314v38.34c0 .173.14.314.314.314.13 0 .25-.087.293-.206.01-.011.01-.033.021-.054 0-.011.022-.087.022-.098l8.834-29.006c.109-.315.109-.532-.162-.803M23.7 17.988l9.224 9.333c.217.216.433.27.759.27h39.596c.27 0 .423-.346.163-.595l-9.16-9.268c-.4-.39-.433-.325-.867-.325h-39.51a.315.315 0 0 0-.314.314c0 .01-.01.152.108.271-.01 0-.01-.01 0 0"/><defs><filter id="a" width="92.809" height="92.809" x=".096" y=".945" color-interpolation-filters="sRGB" filterUnits="userSpaceOnUse"><feFlood flood-opacity="0" result="BackgroundImageFix"/><feColorMatrix in="SourceAlpha" result="hardAlpha" values="0 0 0 0 0 0 0 0 0 0 0 0 0 0 0 0 0 0 127 0"/><feOffset dy="2.827"/><feGaussianBlur stdDeviation="2.827"/><feColorMatrix values="0 0 0 0 0 0 0 0 0 0 0 0 0 0 0 0 0 0 0.28 0"/><feBlend in2="BackgroundImageFix" result="effect1_dropShadow_4376_2491"/><feBlend in="SourceGraphic" in2="effect1_dropShadow_4376_2491" result="shape"/></filter></defs></svg>