<!-- Created with Inkscape (http://www.inkscape.org/) -->
<svg width="389.43" height="200" version="1.1" viewBox="0 0 389.43 200" xmlns="http://www.w3.org/2000/svg">
 <g transform="matrix(1.3333 0 0 -1.3333 -658.36 630.89)">
  <g transform="matrix(2.9552 0 0 2.9552 -965.45 -925.16)">
   <g>
    <path transform="translate(571.43 453.67)" d="m0 0-1.265-5.747-0.097-0.457h6.504c0.748 0.016 1.599 0.146 2.352 0.457 1.105 0.455 2.002 1.306 2.035 2.876-0.064 2.457-1.85 2.822-3.937 2.871zm1.218 6.057h5.736c1.596 5e-3 3.613 0.607 3.631 2.57-0.01 0.862-0.257 1.41-0.668 1.773-0.57 0.498-1.447 0.641-2.505 0.647h-5.14zm-13.628-20.143 6.815 32.833h16.946c7.124-0.061 9.786-2.541 9.825-7.267-0.039-4.154-2.108-6.867-6.05-7.863v-0.153c2.976-0.643 4.909-3.534 4.837-6.497 0.072-7.98-6.273-11.107-13.464-11.053zm-35.664 32.833-3.784-18.002c-0.694-3.698-1.979-7.471-6.199-7.409-4.052-0.062-3.78 3.244-3.78 4.238 0 0.53 0.275 2.185 0.45 3.171l3.782 18.002h-10.141l-4.381-21.023c-0.102-0.677-0.334-1.964-0.3-2.577-0.034-5.283 4.06-10.055 13.918-10.132 8.262 0.077 14.335 3.708 16.031 11.955l4.545 21.777zm35.877-22.094c-0.041-7.853-7.725-11.577-14.828-11.638-7.561 0.061-14.366 3.509-13.908 11.952h9.678c0.072-1.868 0.483-2.968 1.36-3.796 0.827-0.745 2.022-0.827 3.628-0.899 2.025 0.072 4.456 1.078 4.392 3.179 0.064 2.449-3.289 2.778-7.866 4.232-3.983 1.388-7.841 3.504-7.872 8.929 0.031 7.453 7.206 10.852 13.767 10.888 7.052-0.036 13.353-2.654 13.166-10.746h-9.385c0.1 1.336-0.363 2.163-1.052 2.726-0.781 0.546-1.84 0.719-3.035 0.753-1.65-0.034-3.86-0.537-3.927-2.712 0.067-2.469 4.986-2.612 8.165-3.789 5.746-1.988 7.676-5.112 7.717-9.079"/>
    <path d="m495.22 432.1h3.984l-0.143-0.715h-3.137l-0.462-2.345h2.653l-0.155-0.726h-2.63l-0.561-2.707h3.235l-0.154-0.727h-4.072z"/>
    <path transform="translate(500.14 430.23)" d="m0 0h0.693l-0.077-0.803h0.044c0.606 0.528 1.2 0.935 1.871 0.935 0.903 0 1.266-0.506 1.266-1.331 0-0.254-0.022-0.441-0.088-0.738l-0.683-3.412h-0.836l0.66 3.302c0.055 0.286 0.088 0.44 0.088 0.627 0 0.54-0.242 0.826-0.792 0.826-0.418 0-0.935-0.297-1.607-0.969l-0.759-3.786h-0.837z"/>
    <path d="m508.29 426.47 0.484 2.388c-0.308 0.562-0.682 0.793-1.089 0.793-1.068 0-2.058-1.365-2.058-2.84 0-0.924 0.385-1.364 0.979-1.364 0.561 0 1.156 0.33 1.684 1.023m-0.638 3.885c0.572 0 1.034-0.319 1.287-0.803h0.044l0.209 0.671h0.683l-1.068-5.349h-0.693l0.088 0.793h-0.044c-0.517-0.551-1.189-0.925-1.86-0.925-0.935 0-1.541 0.683-1.541 1.937 0 2.058 1.409 3.676 2.895 3.676"/>
    <path d="m512.01 428.79-0.506-2.542c0.297-0.562 0.671-0.793 1.089-0.793 1.068 0 2.047 1.365 2.047 2.851 0 0.902-0.374 1.353-0.979 1.353-0.495 0-1.145-0.33-1.651-0.869m-1.618-3.907 1.563 7.836h0.847l-0.429-2.091-0.242-1.057h0.022c0.528 0.43 1.156 0.793 1.816 0.793 0.935 0 1.541-0.682 1.541-1.937 0-2.058-1.409-3.676-2.884-3.676-0.572 0-1.034 0.319-1.287 0.803h-0.033l-0.22-0.671z"/>
    <path d="m517.67 432.71h0.847l-1.375-6.857c-0.022-0.11-0.022-0.165-0.022-0.209 0-0.132 0.077-0.198 0.187-0.198 0.044 0 0.077 0 0.176 0.033l0.011-0.649c-0.143-0.055-0.297-0.088-0.528-0.088-0.474 0-0.716 0.253-0.716 0.693 0 0.121 0.022 0.275 0.066 0.463z"/>
    <path d="m519.89 431.83c0 0.363 0.297 0.638 0.638 0.638 0.287 0 0.54-0.187 0.54-0.506 0-0.363-0.298-0.627-0.639-0.627-0.286 0-0.539 0.176-0.539 0.495m-0.176-1.607h0.847l-1.078-5.348h-0.837z"/>
    <path d="m522.13 430.23h0.693l-0.077-0.803h0.044c0.606 0.528 1.2 0.935 1.871 0.935 0.903 0 1.266-0.506 1.266-1.331 0-0.254-0.022-0.441-0.088-0.738l-0.682-3.412h-0.837l0.66 3.302c0.056 0.286 0.089 0.44 0.089 0.627 0 0.54-0.243 0.826-0.793 0.826-0.418 0-0.935-0.297-1.607-0.969l-0.759-3.786h-0.836z"/>
    <path d="m530.23 426.57 0.473 2.289c-0.33 0.561-0.682 0.792-1.089 0.792-1.035 0-1.992-1.32-1.992-2.718 0-0.869 0.363-1.298 0.957-1.298 0.506 0 1.145 0.319 1.651 0.935m1.574 3.654-1.123-5.602c-0.286-1.42-1.166-2.212-2.509-2.212-0.715 0-1.354 0.308-1.871 0.737l0.396 0.584c0.407-0.353 0.914-0.639 1.508-0.639 0.913 0 1.453 0.628 1.684 1.596l0.264 1.101h-0.033c-0.528-0.507-1.134-0.859-1.816-0.859-0.902 0-1.552 0.638-1.552 1.882 0 1.959 1.387 3.544 2.829 3.544 0.561 0 1.034-0.319 1.287-0.803h0.033l0.209 0.671z"/>
    <path d="m538.26 432.23c0.825 0 1.42-0.451 1.772-1.068l-0.594-0.451c-0.287 0.463-0.672 0.782-1.222 0.782-1.717 0-2.806-2.003-2.806-3.753 0-1.31 0.539-2.256 1.837-2.256 0.584 0 1.057 0.253 1.53 0.649l0.385-0.55c-0.528-0.463-1.199-0.837-2.069-0.837-1.65 0-2.564 1.189-2.564 2.917 0 2.267 1.497 4.567 3.731 4.567"/>
    <path d="m541.04 426.95c0-0.969 0.407-1.497 1.145-1.497 0.99 0 1.948 1.211 1.948 2.708 0 0.968-0.408 1.507-1.145 1.507-0.979 0-1.948-1.221-1.948-2.718m-0.847-0.055c0 2.025 1.419 3.467 2.883 3.467 1.156 0 1.915-0.815 1.915-2.146 0-2.025-1.431-3.467-2.894-3.467-1.156 0-1.904 0.814-1.904 2.146"/>
    <path d="m546.65 430.23h0.694l-0.078-0.803h0.045c0.605 0.528 1.199 0.935 1.87 0.935 0.903 0 1.266-0.506 1.266-1.331 0-0.254-0.022-0.441-0.088-0.738l-0.682-3.412h-0.837l0.66 3.302c0.056 0.286 0.089 0.44 0.089 0.627 0 0.54-0.242 0.826-0.793 0.826-0.418 0-0.935-0.297-1.607-0.969l-0.759-3.786h-0.836z"/>
    <path d="m552.24 430.23h0.694l-0.078-0.803h0.044c0.606 0.528 1.2 0.935 1.871 0.935 0.903 0 1.266-0.506 1.266-1.331 0-0.254-0.022-0.441-0.088-0.738l-0.682-3.412h-0.837l0.661 3.302c0.055 0.286 0.088 0.44 0.088 0.627 0 0.54-0.242 0.826-0.793 0.826-0.418 0-0.935-0.297-1.607-0.969l-0.759-3.786h-0.836z"/>
    <path d="m560.58 427.95c0.033 0.176 0.055 0.341 0.055 0.55 0 0.606-0.264 1.189-1.034 1.189-0.782 0-1.552-0.682-1.828-1.739zm-0.88 2.41c1.199 0 1.65-0.836 1.65-1.937 0-0.429-0.121-0.847-0.187-1.045h-3.478c-0.198-1.376 0.518-1.959 1.453-1.959 0.419 0 0.859 0.209 1.2 0.462l0.33-0.561c-0.429-0.309-1.035-0.573-1.728-0.573-1.265 0-2.102 0.804-2.102 2.234 0 2.015 1.464 3.379 2.862 3.379"/>
    <path d="m564.93 430.36c0.638 0 1.068-0.286 1.387-0.649l-0.496-0.529c-0.275 0.331-0.528 0.485-0.946 0.485-1.067 0-2.069-1.255-2.069-2.719 0-0.968 0.418-1.496 1.266-1.496 0.473 0 0.858 0.22 1.188 0.473l0.374-0.55c-0.385-0.297-0.935-0.628-1.716-0.628-1.167 0-1.97 0.782-1.97 2.146 0 1.992 1.43 3.467 2.982 3.467"/>
    <path d="m567.58 429.54h-0.781l0.121 0.627 0.836 0.055 0.396 1.475h0.716l-0.297-1.475h1.353l-0.132-0.682h-1.376l-0.627-3.059c-0.022-0.133-0.033-0.254-0.033-0.397 0-0.44 0.176-0.66 0.682-0.66 0.21 0 0.397 0.088 0.562 0.165l0.187-0.605c-0.242-0.11-0.594-0.242-1.013-0.242-0.935 0-1.276 0.528-1.276 1.188 0 0.22 0.033 0.396 0.055 0.594z"/>
    <path d="m571.11 431.83c0 0.363 0.297 0.638 0.638 0.638 0.287 0 0.54-0.187 0.54-0.506 0-0.363-0.298-0.627-0.639-0.627-0.286 0-0.539 0.176-0.539 0.495m-0.176-1.607h0.847l-1.078-5.348h-0.836z"/>
    <path d="m573.23 426.95c0-0.969 0.407-1.497 1.145-1.497 0.99 0 1.948 1.211 1.948 2.708 0 0.968-0.408 1.507-1.145 1.507-0.98 0-1.948-1.221-1.948-2.718m-0.848-0.055c0 2.025 1.42 3.467 2.884 3.467 1.155 0 1.915-0.815 1.915-2.146 0-2.025-1.431-3.467-2.895-3.467-1.155 0-1.904 0.814-1.904 2.146"/>
    <path d="m578.83 430.23h0.694l-0.077-0.803h0.044c0.605 0.528 1.199 0.935 1.87 0.935 0.903 0 1.266-0.506 1.266-1.331 0-0.254-0.022-0.441-0.088-0.738l-0.682-3.412h-0.837l0.661 3.302c0.055 0.286 0.088 0.44 0.088 0.627 0 0.54-0.242 0.826-0.793 0.826-0.418 0-0.935-0.297-1.607-0.969l-0.759-3.786h-0.836z"/>
    <path d="m583.51 426.18c0.33-0.462 0.814-0.781 1.376-0.781 0.616 0 1.133 0.407 1.133 0.891 0 0.385-0.231 0.605-0.979 1.013-0.826 0.451-1.222 0.858-1.222 1.463 0 0.947 0.836 1.596 1.838 1.596 0.649 0 1.178-0.297 1.574-0.715l-0.484-0.473c-0.287 0.297-0.628 0.528-1.112 0.528-0.572 0-1.013-0.385-1.013-0.837 0-0.451 0.463-0.682 0.947-0.946 0.957-0.528 1.255-0.936 1.255-1.519 0-1.001-0.848-1.651-2.004-1.651-0.715 0-1.474 0.452-1.837 1.013z"/>
    <path d="m589.13 430.23h-0.439l0.03 0.155h1.06l-0.03-0.155h-0.441l-0.27-1.362h-0.18z"/>
    <path d="m590.04 430.38h0.215l0.131-0.819 0.051-0.314h9e-3l0.162 0.314 0.45 0.819h0.215l-0.302-1.517h-0.174l0.176 0.856c0.028 0.136 0.071 0.314 0.108 0.446h-9e-3l-0.182-0.338-0.446-0.804h-0.102l-0.14 0.804-0.051 0.338h-9e-3c-0.019-0.137-0.04-0.31-0.065-0.446l-0.171-0.856h-0.169z"/>
   </g>
  </g>
 </g>
</svg>
