<svg xmlns="http://www.w3.org/2000/svg" viewBox="0 0 24 24"><path fill="#f29111" d="m15.496 1.758-2.4 8.25H24V4.72a2.965 2.965 0 0 0-1.824-2.743 3.046 3.046 0 0 0-1.129-.22zm2.11 2.808h3.476a.11.11 0 0 1 .11.11v2.526H16.84z"/><path fill="#00758a" d="M0 1.758 5.183 20c.13.455.25.69.421.944a2.841 2.841 0 0 0 .79.789c.244.163.49.287.764.372.324.101.61.136.991.136h4.325l1.92-6.614h6.798v3.698a.11.11 0 0 1-.11.11h-4.88l-.814 2.806h5.654c.767 0 1.435-.273 1.951-.724A2.904 2.904 0 0 0 24 19.285v-6.47H12.282l-1.92 6.614H7.94L3.716 4.565h2.921l1.546 5.443h2.918l-2.344-8.25z"/></svg>